<svg width="320" height="67" viewBox="0 0 320 67" fill="none" xmlns="http://www.w3.org/2000/svg">
<g clip-path="url(#clip0_801_115)">
<path d="M75.8464 22.8836C73.564 21.4386 71.4001 20.1936 71.4001 18.1557C71.4001 16.1178 73.2602 14.4505 75.8464 14.4505C77.0837 14.5152 78.2979 14.8119 79.4257 15.3249L80.4113 18.9412H80.8781L80.7744 13.4056H80.4558C79.9784 13.4579 79.4984 13.4827 79.0181 13.4797C78.7069 13.4797 78.3882 13.4797 78.0399 13.4352C77.8324 13.4352 77.6175 13.3982 77.4026 13.3908C76.7206 13.3215 76.0354 13.2893 75.3499 13.2944C74.3965 13.2455 73.4433 13.3947 72.5505 13.7327C71.6576 14.0707 70.8445 14.5901 70.1626 15.2582C69.1551 16.2872 68.582 17.6643 68.5619 19.1043C68.5642 19.8837 68.735 20.6534 69.0624 21.3607C69.3898 22.068 69.8662 22.6962 70.459 23.2023C71.6773 24.2858 73.0033 25.2418 74.4162 26.0553C76.6393 27.5374 78.4179 28.7749 78.4179 30.9388C78.3839 31.5354 78.2323 32.1194 77.9719 32.6572C77.7115 33.195 77.3474 33.6761 76.9004 34.0728C76.4535 34.4694 75.9326 34.7738 75.3677 34.9685C74.8027 35.1632 74.2049 35.2444 73.6085 35.2073H73.4825C72.1697 35.1702 70.8743 34.8966 69.6587 34.3995L68.4878 30.5905H67.9839L68.2507 36.3114H68.3989H68.7249C69.0637 36.2636 69.4055 36.2414 69.7476 36.2447C70.2293 36.2447 70.6887 36.2447 71.2297 36.3262C71.9707 36.3929 72.8155 36.4596 73.9864 36.4596C79.9592 36.4596 81.5525 32.3394 81.5525 29.968C81.5535 29.1645 81.391 28.3691 81.0751 27.6302C80.7592 26.8913 80.2963 26.2244 79.7147 25.67C78.5258 24.609 77.2293 23.6752 75.8464 22.8836V22.8836ZM73.7418 35.8594V35.7038C77.1581 35.6445 79.0478 33.1694 79.0478 30.8721C79.0773 30.2982 78.982 29.7246 78.7683 29.1911C78.5547 28.6576 78.2278 28.1768 77.8102 27.7819C76.1799 26.1516 72.7488 24.6177 70.8814 22.7576C70.3617 22.3161 69.9397 21.7711 69.6424 21.1574C69.3451 20.5437 69.179 19.8747 69.1547 19.1932C69.1547 15.9622 71.9189 13.7909 75.3425 13.7909H75.8464V13.954C71.5113 14.0799 69.918 16.7699 69.918 18.6226C69.9008 19.2829 70.0356 19.9384 70.3118 20.5384C70.5881 21.1384 70.9984 21.667 71.5113 22.0833C73.5566 24.0396 76.9061 25.544 78.4475 27.0483C78.9547 27.5167 79.3509 28.0924 79.6073 28.7334C79.8638 29.3744 79.9738 30.0646 79.9296 30.7536C79.9667 33.2361 77.7287 35.9854 73.7418 35.8594Z" fill="white"/>
<path d="M212.622 22.8836C210.34 21.4386 208.176 20.1936 208.176 18.1557C208.176 16.1178 210.036 14.4505 212.622 14.4505C213.859 14.5152 215.073 14.8118 216.201 15.3249L217.187 18.9412H217.646L217.55 13.3759H217.231C216.754 13.4283 216.274 13.453 215.794 13.45C215.482 13.45 215.156 13.45 214.815 13.4056C214.608 13.4056 214.393 13.3685 214.178 13.3611C213.494 13.2916 212.806 13.2595 212.118 13.2648C211.164 13.2135 210.211 13.3617 209.317 13.6998C208.424 14.038 207.611 14.5586 206.931 15.2286C205.921 16.2568 205.345 17.6338 205.323 19.0746C205.324 19.8548 205.496 20.6254 205.824 21.3329C206.153 22.0405 206.632 22.6682 207.227 23.1726C208.447 24.2776 209.778 25.2535 211.199 26.0849C213.422 27.567 215.201 28.8046 215.201 30.9684C215.167 31.565 215.015 32.149 214.755 32.6868C214.494 33.2247 214.13 33.7057 213.683 34.1024C213.236 34.499 212.716 34.8035 212.151 34.9982C211.586 35.1929 210.988 35.274 210.391 35.2369H210.265C208.951 35.1913 207.655 34.9075 206.442 34.3995L205.271 30.5905H204.774L205.041 36.2966H205.189H205.515C205.854 36.2488 206.196 36.2265 206.538 36.2299C207.02 36.2299 207.479 36.2299 208.02 36.3114C208.761 36.3781 209.598 36.4448 210.777 36.4448C216.75 36.4448 218.343 32.3246 218.343 29.9532C218.344 29.1496 218.181 28.3543 217.865 27.6154C217.55 26.8765 217.087 26.2096 216.505 25.6551C215.311 24.5985 214.009 23.6696 212.622 22.8836V22.8836ZM210.51 35.8594V35.7038C213.934 35.6445 215.816 33.1694 215.816 30.8721C215.851 30.3009 215.761 29.7289 215.554 29.1955C215.347 28.6621 215.027 28.1799 214.615 27.7819C212.985 26.1516 209.554 24.6177 207.687 22.7576C207.167 22.3161 206.745 21.7711 206.448 21.1574C206.15 20.5437 205.984 19.8747 205.96 19.1932C205.96 15.9622 208.724 13.7909 212.148 13.7909H212.681V13.954C208.346 14.0799 206.753 16.7699 206.753 18.6226C206.731 19.2785 206.858 19.931 207.125 20.5305C207.392 21.1301 207.792 21.6611 208.294 22.0833C210.34 24.0396 213.696 25.544 215.238 27.0483C215.752 27.5132 216.155 28.0874 216.418 28.7286C216.681 29.3697 216.797 30.0617 216.757 30.7535C216.742 33.2361 214.497 35.9854 210.51 35.8594Z" fill="white"/>
<path d="M92.5719 19.6675C93.74 19.3606 94.9434 19.2086 96.1512 19.2154C96.8838 19.2151 97.6151 19.277 98.3373 19.4007L99.2488 22.3056H99.6786L99.4118 18.0446H99.2488C98.0557 18.1409 96.6921 18.2446 95.3953 18.2446H84.7464C84.3051 18.2356 83.8647 18.2009 83.4274 18.1409C83.1309 18.1409 82.8345 18.0668 82.5455 18.0446H82.3899L82.1157 22.3871H82.5529L83.457 19.4229C84.231 19.2929 85.0139 19.2235 85.7987 19.2154C86.9614 19.2353 88.1188 19.3769 89.252 19.6378C89.4022 21.3131 89.464 22.9951 89.4373 24.6769V28.9676C89.4501 31.0855 89.3561 33.2026 89.1557 35.311L86.147 35.7705V36.1854H95.7288V35.7705L92.6312 35.3406C92.3879 33.2176 92.2666 31.0823 92.2681 28.9454V24.7881C92.2829 23.7136 92.3718 21.5423 92.5719 19.6675ZM90.8453 35.3777H90.0227V19.0746H90.8453V35.3777Z" fill="white"/>
<path d="M99.975 33.1027C99.7545 33.1017 99.536 33.1446 99.3323 33.229C99.1286 33.3133 98.9437 33.4375 98.7885 33.5941C98.6332 33.7507 98.5108 33.9366 98.4282 34.1411C98.3457 34.3455 98.3047 34.5644 98.3076 34.7849C98.3076 35.0024 98.3509 35.2179 98.435 35.4185C98.5192 35.6192 98.6425 35.801 98.7977 35.9535C98.9529 36.106 99.137 36.226 99.3391 36.3065C99.5413 36.3871 99.7574 36.4265 99.975 36.4226C100.412 36.4246 100.832 36.2534 101.143 35.9464C101.454 35.6395 101.631 35.2219 101.635 34.7849C101.637 34.342 101.463 33.9163 101.152 33.601C100.841 33.2858 100.418 33.1066 99.975 33.1027V33.1027ZM99.975 35.8668C99.6814 35.8668 99.3998 35.7507 99.1916 35.5438C98.9833 35.337 98.8654 35.0562 98.8634 34.7626C98.8593 34.6159 98.8852 34.4698 98.9397 34.3335C98.9942 34.1972 99.0761 34.0735 99.1802 33.97C99.2844 33.8665 99.4087 33.7855 99.5453 33.7319C99.682 33.6783 99.8283 33.6533 99.975 33.6585V35.8668Z" fill="white"/>
<path d="M115.789 28.2859V21.6905C115.789 20.5567 115.9 16.2735 116.004 14.9544C116.804 14.8092 117.614 14.7324 118.427 14.7247C122.273 14.7247 123.666 18.2595 123.666 20.6531C123.666 24.6399 120.398 26.1368 117.338 26.1368C117.034 26.1368 116.723 26.1368 116.419 26.0924V26.5444C117.452 26.7444 118.501 26.8461 119.554 26.8482C123.926 26.8482 127.105 23.8099 127.105 19.8675C127.131 18.2451 126.528 16.6755 125.423 15.4879C124.052 14.117 122.288 13.5612 119.05 13.5612H108.282V14.0429L112.187 14.5765C112.343 16.7107 112.373 20.2529 112.373 22.2537V26.5963C112.373 29.5605 112.321 32.9915 112.136 35.2517L108.319 35.7853V36.2373H120.087V35.8223L116.026 35.2517C115.871 33.5399 115.789 28.975 115.789 28.2859ZM118.679 14.08H119.272C123.948 14.08 125.43 17.6889 125.43 20.3566C125.43 24.9734 121.725 26.3591 119.502 26.3591V26.2035C120.884 26.0953 122.168 25.4481 123.078 24.4014C123.987 23.3547 124.449 21.9925 124.363 20.6086C124.363 17.4073 122.555 14.3467 118.716 14.2356L118.679 14.08ZM114.025 35.3851H113.084V14.4505H114.025V35.3851Z" fill="white"/>
<path d="M140.251 30.6424L134.871 17.926H133.589L127.875 32.4654C127.48 33.4642 127.012 34.4326 126.475 35.3629L124.155 35.8001V36.2151H131.047V35.7927L128.135 35.3703C128.552 33.7741 129.087 32.2111 129.736 30.6943H137.146C137.866 32.2066 138.476 33.7694 138.969 35.3703L135.827 35.7927V36.2151H144.505V35.8075L142.585 35.3629C141.715 33.8368 140.935 32.2606 140.251 30.6424V30.6424ZM133.478 29.679C132.378 29.7018 131.277 29.6671 130.18 29.5753L130.425 28.9009C131.166 27.078 132.418 23.7655 133.389 21.8758C134.73 24.7066 135.96 27.6486 136.642 29.5975C135.397 29.642 134.523 29.679 133.478 29.679V29.679ZM139.814 35.3777L133.582 20.49L133.997 19.371L140.748 35.3777H139.814Z" fill="white"/>
<path d="M155.005 18.6744L158.214 19.0746C158.384 21.0459 158.451 23.0247 158.414 25.003V30.1311C158.414 33.5473 156.836 35.274 153.449 35.274C151.115 35.274 148.336 34.4514 148.336 30.5312V25.5884C148.336 24.3583 148.484 20.6308 148.692 19.0746L151.915 18.6744V18.252H142.756V18.667L145.246 19.0746C145.379 20.4826 145.409 22.3426 145.409 24.1804V30.8943C145.409 34.5996 148.165 36.4226 153.353 36.4226C157.251 36.4226 158.77 35.6815 159.941 34.5181C160.897 33.5621 161.341 32.2431 161.341 30.3682V24.5584C161.34 22.7253 161.451 20.8939 161.675 19.0746L164.098 18.667V18.252H155.005V18.6744ZM152.656 35.9409C147.884 35.7705 146.031 33.7622 146.031 30.8943V19.0894H146.883V30.4423C146.883 33.9623 149.292 35.6297 152.656 35.7927V35.9409ZM159.037 19.0894H159.896V30.2422C159.896 33.9104 158.133 35.7186 154.264 35.9409V35.7927C157.755 35.3925 159.037 33.3324 159.037 30.22V19.0894Z" fill="white"/>
<path d="M178.082 34.8293C177.046 35.0465 175.99 35.1459 174.932 35.1257C173.516 35.149 172.106 34.9489 170.753 34.5329C170.664 33.5325 170.567 31.8799 170.567 30.6869V25.5366C170.571 23.3852 170.69 21.2356 170.923 19.0968L173.984 18.6744V18.252H164.513V18.6744L167.403 19.0968C167.597 21.0865 167.671 23.086 167.625 25.0845V28.1599C167.64 30.5603 167.526 32.9598 167.285 35.3481L164.32 35.7853V36.2003H179.178L179.771 31.4131H179.312L178.082 34.8293ZM169.13 35.4073H168.278V19.1043H169.13V35.4073Z" fill="white"/>
<path d="M319.548 31.4279L318.251 34.8293C317.218 35.0466 316.164 35.1461 315.109 35.1257C313.693 35.1495 312.283 34.9494 310.93 34.5329C310.841 33.5325 310.737 31.8799 310.737 30.6869V25.5366C310.743 23.385 310.864 21.2354 311.1 19.0968L314.153 18.6744V18.252H304.571V18.6744L307.602 19.0968C307.792 21.0868 307.866 23.086 307.825 25.0845V28.1599C307.839 30.5603 307.725 32.9598 307.484 35.3481L304.519 35.7853V36.2003H319.392L319.978 31.4131L319.548 31.4279ZM309.307 35.3777H308.447V19.0746H309.307V35.3777Z" fill="white"/>
<path d="M179.001 16.681C178.57 16.6702 178.152 16.8273 177.835 17.1189C177.518 17.4106 177.327 17.814 177.302 18.2441C177.277 18.6741 177.42 19.097 177.701 19.4235C177.982 19.7499 178.379 19.9543 178.808 19.9935C178.701 20.6485 178.377 21.2487 177.889 21.6979L177.778 21.8091L178.089 22.1203L178.193 22.0759C178.445 21.9499 180.668 20.8161 180.668 18.5707C180.684 18.3368 180.653 18.1021 180.578 17.8801C180.503 17.6581 180.384 17.4533 180.229 17.2775C180.074 17.1018 179.885 16.9585 179.675 16.8561C179.464 16.7537 179.235 16.6942 179.001 16.681V16.681ZM179.001 19.4451C178.706 19.4451 178.423 19.328 178.214 19.1196C178.006 18.9111 177.889 18.6284 177.889 18.3336C177.889 18.0388 178.006 17.756 178.214 17.5476C178.423 17.3391 178.706 17.222 179.001 17.222V19.4451Z" fill="white"/>
<path d="M190.087 25.6774C188.271 24.5213 186.559 23.5135 186.559 21.898C186.559 20.2825 188.041 18.9931 190.072 18.9931C191.051 19.0411 192.011 19.275 192.903 19.6823L193.696 22.5872H194.155L194.073 18.0594L193.784 18.0964C193.405 18.1374 193.024 18.1572 192.643 18.1557C192.399 18.1557 192.139 18.1557 191.865 18.1113H191.354C190.805 18.0546 190.253 18.0274 189.701 18.0297C187.597 18.0297 184.247 19.3043 184.247 22.7058C184.248 23.3482 184.384 23.9833 184.647 24.5694C184.91 25.1556 185.294 25.6796 185.774 26.1072C186.74 26.972 187.793 27.7345 188.916 28.3822C190.672 29.5456 192.139 30.4423 192.139 32.1541C192.139 33.5177 190.954 35.437 188.315 35.437H188.219C187.177 35.398 186.15 35.1721 185.188 34.77L184.247 31.7169H183.78L183.995 36.3485H184.143H184.41C184.68 36.3117 184.953 36.2944 185.225 36.2966C185.603 36.2966 185.966 36.2966 186.404 36.3633C187.004 36.4152 187.671 36.467 188.627 36.467C193.429 36.467 194.711 33.2435 194.711 31.339C194.708 30.6901 194.575 30.0484 194.321 29.4516C194.066 28.8547 193.695 28.3148 193.229 27.8635C192.264 27.0225 191.21 26.2894 190.087 25.6774V25.6774ZM188.39 35.9409V35.8149C191.124 35.7705 192.695 33.8734 192.695 32.043C192.692 31.5783 192.593 31.1192 192.405 30.6945C192.216 30.2699 191.941 29.8888 191.598 29.5753C190.294 28.271 187.73 27.1965 186.1 25.5366C185.689 25.1753 185.359 24.7308 185.133 24.2325C184.907 23.7343 184.789 23.1936 184.788 22.6465C184.788 20.0602 186.952 18.4077 189.694 18.4077H190.094V18.5262C186.626 18.63 185.396 20.7494 185.396 22.2315C185.398 22.7455 185.509 23.2531 185.723 23.7208C185.936 24.1884 186.246 24.6053 186.633 24.9437C187.915 26.1739 190.924 27.6634 192.154 28.8639C192.581 29.2438 192.919 29.7128 193.144 30.2379C193.37 30.7629 193.477 31.3311 193.458 31.9022C193.458 33.9104 191.576 36.0447 188.39 35.9409Z" fill="white"/>
<path d="M231.845 35.185C227.806 35.185 223.856 32.4506 223.856 27.0335C223.856 22.0166 226.62 19.1561 231.496 19.1561C233.127 19.1857 234.751 19.3794 236.343 19.7342L237.18 22.4686H237.61L237.447 18.0223C236.547 18.125 235.641 18.1671 234.735 18.1483C233.749 18.1483 231.771 18.0297 231.541 18.0223C231.067 18.0223 230.592 17.9705 230.059 17.9705C224.545 17.9705 220.536 21.861 220.536 27.3892C220.536 31.7762 223.701 36.393 230.637 36.393C231.252 36.393 231.815 36.3485 232.349 36.2966C232.882 36.2447 233.468 36.1929 234.105 36.1929C234.624 36.1929 235.898 36.304 235.898 36.304L237.84 32.6951L237.447 32.5321C236.796 33.3924 235.946 34.0828 234.971 34.5447C233.995 35.0065 232.923 35.2262 231.845 35.185V35.185ZM232.045 35.9261C224.842 36.43 221.174 31.9467 221.174 27.404C221.174 22.4019 224.716 18.4447 230.615 18.4447H232.045V18.6152H231.207C224.657 18.6152 222.115 23.2616 222.115 27.278C222.115 31.5243 225.153 35.9261 232.06 35.7779L232.045 35.9261Z" fill="white"/>
<path d="M251.957 18.6744L255.173 19.0746C255.262 20.0306 255.388 21.6609 255.388 23.7803C255.433 24.6368 255.433 25.4952 255.388 26.3517C253.457 26.5762 251.514 26.6727 249.571 26.6407C247.761 26.6499 245.952 26.5534 244.154 26.3517C244.109 25.3661 244.087 24.4769 244.087 24.0841C244.081 22.4194 244.183 20.756 244.391 19.1043L247.599 18.6744V18.252H238.477V18.667L240.982 19.0746C241.18 20.6598 241.265 22.2571 241.234 23.8544V28.3748C241.253 30.7103 241.152 33.0453 240.93 35.3703L238.455 35.8001V36.2151H247.651V35.7927L244.465 35.3629C244.225 33.7489 244.116 32.1183 244.139 30.4868C244.139 29.8495 244.139 28.5526 244.183 27.6411H255.44C255.484 28.5156 255.44 29.968 255.44 30.7387C255.451 32.283 255.377 33.8268 255.217 35.3629L251.957 35.7927V36.2151H261.124V35.8001L258.649 35.3703C258.409 33.6343 258.292 31.8835 258.3 30.1311V26.0182C258.262 23.6985 258.378 21.3788 258.649 19.0746L261.124 18.667V18.252H251.957V18.6744ZM242.701 35.3777H241.849V19.0746H242.701V35.3777ZM256.04 19.0746H256.892V35.3777H256.04V19.0746Z" fill="white"/>
<path d="M272.017 18.0001C267.111 18.0001 262.043 21.0829 262.043 27.2484C262.043 31.3686 264.807 36.4226 272.239 36.4226C278.472 36.4226 282.34 32.2653 282.34 27.1965C282.34 22.9725 279.064 18.0001 272.017 18.0001ZM271.535 35.8964C269.23 35.8964 267.019 34.9806 265.389 33.3505C263.759 31.7203 262.843 29.5093 262.843 27.2039C262.843 24.8985 263.759 22.6876 265.389 21.0574C267.019 19.4272 269.23 18.5114 271.535 18.5114V18.6374C269.351 18.7655 267.302 19.7377 265.821 21.3487C264.34 22.9596 263.543 25.0831 263.599 27.2706C263.606 29.4271 264.428 31.5011 265.9 33.0772C267.372 34.6534 269.385 35.6154 271.535 35.7705V35.8964ZM272.113 35.2888C268.793 35.2888 265.362 32.784 265.362 27.1372C265.362 21.4904 268.779 19.1339 272.091 19.1339C273.247 19.1339 279.02 19.3859 279.02 27.4633C279.02 31.3909 276.649 35.2888 272.113 35.2888ZM272.743 35.8964V35.7705C277.871 35.3184 279.68 31.1611 279.68 27.2706C279.68 20.6012 275.581 18.8597 272.721 18.6374V18.5262C276.486 18.6226 280.584 21.2311 280.584 27.2113C280.584 32.6951 276.864 35.7408 272.743 35.8964Z" fill="white"/>
<path d="M293.819 18.0001C288.913 18.0001 283.844 21.0829 283.844 27.2484C283.844 31.3686 286.608 36.4226 294.041 36.4226C300.273 36.4226 304.142 32.2653 304.142 27.1965C304.142 22.9725 300.866 18.0001 293.819 18.0001ZM293.337 35.8964C291.032 35.8964 288.821 34.9806 287.19 33.3505C285.56 31.7203 284.644 29.5093 284.644 27.2039C284.644 24.8985 285.56 22.6876 287.19 21.0574C288.821 19.4272 291.032 18.5114 293.337 18.5114V18.6374C291.153 18.7655 289.103 19.7377 287.622 21.3487C286.141 22.9596 285.345 25.0831 285.4 27.2706C285.408 29.4271 286.23 31.5011 287.702 33.0772C289.173 34.6534 291.186 35.6154 293.337 35.7705V35.8964ZM293.915 35.2888C290.595 35.2888 287.164 32.784 287.164 27.1372C287.164 21.4904 290.58 19.1339 293.893 19.1339C295.049 19.1339 300.822 19.3859 300.822 27.4633C300.822 31.3909 298.45 35.2888 293.915 35.2888ZM294.545 35.8964V35.7705C299.673 35.3184 301.481 31.1611 301.481 27.2706C301.481 20.6012 297.383 18.8597 294.523 18.6374V18.5262C298.287 18.6226 302.385 21.2311 302.385 27.2113C302.385 32.6951 298.643 35.7408 294.545 35.8964Z" fill="white"/>
<path d="M32.1097 5.12806C31.754 5.35038 32.0134 5.92099 32.584 6.45454C33.1546 6.9881 33.8512 7.57353 34.4514 8.05521C33.8882 7.04738 33.4065 6.23223 32.9693 5.59492C32.7544 5.26886 32.4209 4.92798 32.1097 5.12806Z" fill="#FFD91E"/>
<path d="M28.1006 3.41623C27.8275 3.30429 27.5303 3.26391 27.2373 3.29893C26.9442 3.33394 26.6649 3.44318 26.4258 3.61631C27.0423 4.68427 27.4804 5.84569 27.7227 7.05478C27.493 5.59492 27.5967 4.15728 28.1006 3.41623Z" fill="#FFD91E"/>
<path d="M21.9573 7.64023C22.0018 7.70692 22.1426 7.56612 22.0759 7.48461C22.0049 7.40032 21.9281 7.32108 21.8461 7.24747C21.7943 7.18819 21.7572 7.24747 21.7794 7.28452C21.8017 7.32158 21.9128 7.56612 21.9573 7.64023Z" fill="#FFD91E"/>
<path d="M27.7597 29.479L26.5666 28.2192L20.8235 33.6214L22.2167 35.0146L27.7597 29.479Z" fill="white"/>
<path d="M36.8746 7.46238C37.1118 7.46238 37.3637 7.38086 37.3934 7.23265C37.423 7.08444 37.3267 7.1289 37.2155 7.09926C35.8542 6.75936 34.5507 6.21997 33.3472 5.4986L34.0142 6.59535C34.9044 7.06225 35.875 7.35643 36.8746 7.46238V7.46238Z" fill="#FFD91E"/>
<path d="M22.4167 9.07044C22.5092 9.11507 22.6105 9.13825 22.7132 9.13825C22.8158 9.13825 22.9171 9.11507 23.0096 9.07044C23.0804 8.79122 23.2589 8.55142 23.5061 8.40349C23.3942 8.32115 23.3042 8.21272 23.2438 8.08763C23.1834 7.96254 23.1545 7.82458 23.1596 7.68577C23.1647 7.54697 23.2037 7.41151 23.2731 7.2912C23.3425 7.1709 23.4403 7.06938 23.558 6.9955C23.5061 6.8547 23.3356 6.80283 23.2467 6.7139C23.0626 6.51948 22.9307 6.2816 22.8633 6.02245C22.7959 5.76329 22.7952 5.49128 22.8614 5.2318C22.9067 5.08603 22.9859 4.9531 23.0927 4.84399C23.1994 4.73487 23.3306 4.65268 23.4753 4.60419C23.6201 4.5557 23.7743 4.5423 23.9252 4.5651C24.0761 4.58789 24.2195 4.64623 24.3435 4.7353C25.0178 5.17252 25.5143 6.38043 25.6922 8.03297C25.8907 8.13831 26.077 8.26504 26.248 8.4109C26.7222 8.81107 27.7745 9.6114 27.9968 9.78184C28.0346 9.76764 28.0762 9.76729 28.1142 9.78086C28.1522 9.79443 28.1841 9.82104 28.2043 9.85595C28.3451 10.1894 27.8338 10.6563 27.3521 10.597C27.0291 10.5304 26.71 10.4463 26.3962 10.345C26.697 10.9424 27.1624 11.4412 27.7376 11.7826C28.3127 12.124 28.9735 12.2937 29.642 12.2718C29.642 11.5307 29.7457 10.5377 29.4419 10.0931C29.3159 9.90782 29.3678 9.78925 29.5975 9.97452C29.7627 10.1808 29.8841 10.4187 29.9542 10.6735C30.0243 10.9284 30.0416 11.1948 30.0051 11.4566C30.0051 11.5974 30.0051 11.7308 30.0051 11.8568C30.0051 12.4052 30.0051 12.8053 30.2274 13.0499C30.5215 13.2659 30.8892 13.3565 31.25 13.3018C31.4356 13.3226 31.6235 13.3065 31.8028 13.2543C31.9822 13.2022 32.1494 13.1151 32.2949 12.998C32.3877 12.8674 32.4515 12.7186 32.4822 12.5614C32.5128 12.4043 32.5096 12.2423 32.4728 12.0865L32.4135 11.6863L32.658 11.9754C32.7872 12.0899 32.942 12.1717 33.1095 12.2137C33.2769 12.2557 33.452 12.2568 33.62 12.2168C33.7879 12.1768 33.9437 12.097 34.0743 11.984C34.2048 11.871 34.3062 11.7282 34.3699 11.5678C32.6062 11.2639 30.0347 8.81848 29.642 8.38126C29.4425 8.147 29.3439 7.84324 29.3678 7.53646C29.3748 7.45661 29.3992 7.37925 29.4393 7.30984C29.4794 7.24044 29.5342 7.18067 29.5999 7.13474C29.6656 7.08882 29.7406 7.05786 29.8196 7.04404C29.8985 7.03023 29.9796 7.0339 30.057 7.05478C30.0198 6.94568 30.0119 6.82874 30.034 6.71563C30.0561 6.60251 30.1074 6.49715 30.1829 6.41007C30.2492 6.34788 30.3303 6.30367 30.4185 6.28162C30.5067 6.25957 30.5991 6.26042 30.6868 6.28409C30.6533 6.17428 30.6507 6.05732 30.6795 5.94615C30.7083 5.83498 30.7672 5.73394 30.8499 5.6542C30.9681 5.54848 31.1211 5.49003 31.2797 5.49003C31.4383 5.49003 31.5913 5.54848 31.7095 5.6542C31.6508 5.53939 31.6301 5.40889 31.6505 5.28156C31.6709 5.15424 31.7312 5.0367 31.8228 4.94593C31.9144 4.85517 32.0325 4.79589 32.16 4.77668C32.2875 4.75746 32.4178 4.7793 32.5321 4.83904C32.2803 4.49294 31.9975 4.17048 31.6873 3.87568C30.7535 2.96419 29.8865 2.69 29.1084 3.00865C27.9894 3.4681 27.6263 5.09841 28.1376 7.37343C28.1521 7.41872 28.1567 7.46658 28.1512 7.51379C28.1456 7.56101 28.1301 7.60649 28.1055 7.6472C28.0809 7.6879 28.0479 7.72288 28.0088 7.7498C27.9696 7.77671 27.9251 7.79493 27.8783 7.80324C27.788 7.81606 27.6963 7.79297 27.6229 7.73894C27.5494 7.6849 27.5001 7.60423 27.4855 7.51423C27.2996 6.15822 26.8218 4.85868 26.0849 3.70524C23.7136 0.689167 19.3784 3.36436 20.6234 7.24004C21.0144 8.02319 21.6417 8.66353 22.4167 9.07044V9.07044ZM28.5526 10.1672C28.6035 10.3809 28.6807 10.5875 28.7823 10.7823C29.0788 11.464 28.7823 11.716 28.5007 11.716C28.2192 11.716 27.9005 11.3899 28.2266 10.7674C28.3271 10.5774 28.4043 10.3758 28.4563 10.1672C28.4785 10.0857 28.5378 10.0783 28.5526 10.1672ZM21.6905 6.93621C21.9721 7.06219 22.1648 7.05478 22.4316 7.28451C22.5236 7.38341 22.5942 7.50032 22.6388 7.62787C22.6835 7.75541 22.7012 7.89082 22.6909 8.02556C22.6909 8.15895 22.6242 8.20341 22.5205 8.17377C22.3037 8.11338 22.1035 8.0044 21.9351 7.85512C21.766 7.61553 21.6429 7.34668 21.5719 7.06219C21.4904 6.93621 21.5497 6.87693 21.6905 6.93621Z" fill="#FFD91E"/>
<path d="M10.9453 44.463C10.7281 44.6793 10.58 44.9553 10.5198 45.2559C10.4595 45.5565 10.4898 45.8682 10.6069 46.1515C10.7239 46.4349 10.9224 46.6771 11.1773 46.8476C11.4321 47.018 11.7318 47.109 12.0384 47.109C12.3449 47.109 12.6446 47.018 12.8994 46.8476C13.1543 46.6771 13.3528 46.4349 13.4698 46.1515C13.5869 45.8682 13.6172 45.5565 13.557 45.2559C13.4967 44.9553 13.3486 44.6793 13.1314 44.463C12.9882 44.3189 12.8178 44.2046 12.6303 44.1265C12.4427 44.0485 12.2415 44.0084 12.0384 44.0084C11.8352 44.0084 11.634 44.0485 11.4465 44.1265C11.2589 44.2046 11.0886 44.3189 10.9453 44.463V44.463Z" fill="#FFD91E"/>
<path d="M35.2147 11.4789C35.6501 12.4662 36.1839 13.4071 36.8079 14.2874C37.134 14.7617 37.5119 14.8358 37.6675 14.7395C37.8232 14.6431 37.7194 14.5246 37.6675 14.4653C36.9929 13.3546 36.3818 12.2066 35.8371 11.0268C35.6714 11.2279 35.4572 11.3835 35.2147 11.4789V11.4789Z" fill="#FFD91E"/>
<path d="M32.4061 6.66945C32.1467 6.43232 31.9096 6.20259 31.7243 6.00251C31.5391 5.80243 31.2723 5.68386 31.087 5.83207C31.0458 5.8811 31.0148 5.93799 30.9962 5.9993C30.9775 6.06061 30.9714 6.12507 30.9783 6.18879C30.9853 6.25251 31.005 6.31417 31.0364 6.37004C31.0679 6.4259 31.1103 6.47482 31.1611 6.51383C32.3191 7.82072 33.7278 8.88165 35.3036 9.63365C35.5407 9.74481 35.7705 9.82633 35.889 9.6707C36.0076 9.51508 35.6741 9.30759 35.5778 9.25572C35.3211 9.08105 35.0738 8.89306 34.8367 8.69252C34.1402 8.15155 33.162 7.4105 32.4061 6.66945Z" fill="#FFD91E"/>
<path d="M36.467 7.79584C36.2892 7.79584 35.8297 7.61058 35.6148 7.54389C35.1555 7.4003 34.7052 7.22956 34.2661 7.03256L34.7774 7.93664C35.1109 8.06527 35.4596 8.14996 35.8149 8.1886C36.4596 8.29235 36.9784 7.89218 36.467 7.79584Z" fill="#FFD91E"/>
<path d="M30.961 6.72133C30.7313 6.46937 30.5016 6.50643 30.4053 6.61017C30.3089 6.71392 30.3163 7.12891 30.6424 7.46979C31.9478 8.89522 33.5843 9.97694 35.4073 10.6193C35.7112 10.7082 36.0669 10.7526 36.1484 10.5377C36.2299 10.3228 35.8964 10.271 35.1628 9.90784C33.5597 9.14303 32.1299 8.05867 30.961 6.72133V6.72133Z" fill="#FFD91E"/>
<path d="M35.5704 10.9305C33.777 10.5451 31.9837 9.2483 30.4349 7.66986C30.1681 7.39568 29.931 7.25488 29.768 7.37344C29.6049 7.49201 29.6568 7.907 29.8939 8.21083C30.1311 8.51466 34.0883 12.4422 35.5704 10.9305Z" fill="#FFD91E"/>
<path d="M29.642 65.2123C39.3201 60.3881 45.2781 55.4305 50.1765 48.1682C56.1567 39.2756 58.4836 30.383 58.4836 16.4513V0.800323H0.800323V16.4291C0.800323 30.383 3.12722 39.2756 9.10749 48.1682C14.0058 55.4305 19.9639 60.3881 29.642 65.2123ZM36.4226 49.0501C36.6586 49.1975 36.8413 49.4165 36.944 49.6752C37.0467 49.9338 37.0639 50.2185 36.9932 50.4877C36.9559 50.6508 36.8808 50.8028 36.774 50.9315C36.6672 51.0603 36.5315 51.1621 36.3781 51.2287V51.9253H36.4226C36.6589 52.0706 36.842 52.2883 36.9448 52.5459C37.0476 52.8036 37.0646 53.0875 36.9932 53.3556C36.9559 53.5186 36.8808 53.6707 36.774 53.7994C36.6672 53.9281 36.5315 54.0299 36.3781 54.0966V54.8376H36.4226C36.6685 54.9865 36.858 55.2129 36.9613 55.4811C37.0646 55.7494 37.0758 56.0444 36.9932 56.3197C36.957 56.4833 36.8824 56.6359 36.7754 56.7648C36.6684 56.8937 36.5322 56.9951 36.3781 57.0608V58.3725C36.3781 58.8541 35.9928 59.3729 34.896 59.4322V59.6841H24.7436L23.0392 58.5429V55.26H22.9948C22.7737 55.1585 22.5914 54.9882 22.4752 54.7745C22.3589 54.5607 22.3151 54.3151 22.35 54.0744C22.35 53.237 22.6168 53.074 23.0392 52.9183V48.5758H22.9948C22.7737 48.4743 22.5914 48.3039 22.4752 48.0902C22.3589 47.8765 22.3151 47.6309 22.35 47.3901C22.35 46.5527 22.6168 46.3897 23.0392 46.2341V42.8771H33.7622C34.5839 42.7983 35.4061 43.0223 36.0743 43.507C36.1756 43.5878 36.2557 43.6921 36.3073 43.811C36.359 43.9298 36.3808 44.0596 36.3707 44.1888V44.1888V46.1155H36.4152C36.6521 46.2621 36.8355 46.481 36.9383 46.7399C37.041 46.9989 37.0577 47.284 36.9858 47.5531C36.9485 47.7162 36.8734 47.8683 36.7666 47.997C36.6597 48.1257 36.5241 48.2275 36.3707 48.2942V49.0352L36.4226 49.0501ZM26.2183 3.34953C26.5211 3.13002 26.8763 2.99394 27.2483 2.95492C27.6203 2.9159 27.9959 2.97532 28.3377 3.12722C28.521 2.93958 28.7403 2.79087 28.9824 2.69C29.8939 2.31206 30.8869 2.63072 31.9466 3.62372C32.3436 4.02907 32.6987 4.47349 33.0063 4.9502C34.329 5.8021 35.7803 6.43517 37.3044 6.82506C37.6231 6.90657 37.7268 7.12148 37.6898 7.29192C37.6527 7.46236 37.3859 7.69949 36.9487 7.73655C36.9901 7.80831 37.0083 7.89117 37.0006 7.97368C37.0006 8.24787 36.4744 8.53688 35.8223 8.4776C35.5563 8.44604 35.2934 8.39149 35.0368 8.31457L35.1924 8.61098C35.4963 8.84812 35.6889 8.98151 35.763 9.02597C36.3781 9.35945 36.3262 9.8189 36.015 9.98934C36.4744 10.2191 36.5189 10.4043 36.4744 10.6192C36.4536 10.6914 36.4148 10.7572 36.3617 10.8103C36.3085 10.8634 36.2428 10.9022 36.1706 10.9231C36.634 11.9392 37.1536 12.9288 37.7268 13.8873C37.8306 14.0725 37.9195 14.2281 37.9862 14.3319C38.039 14.4041 38.07 14.49 38.0755 14.5793C38.0809 14.6687 38.0605 14.7577 38.0168 14.8358C37.9731 14.9138 37.9078 14.9777 37.8288 15.0198C37.7498 15.0618 37.6604 15.0803 37.5712 15.0729C37.4427 15.0709 37.3161 15.0405 37.2007 14.984C37.2201 15.0496 37.2233 15.119 37.2099 15.1861C37.1966 15.2532 37.1671 15.3161 37.1241 15.3693C37.0811 15.4225 37.0258 15.4645 36.963 15.4916C36.9002 15.5187 36.8317 15.5302 36.7635 15.525C36.4805 15.504 36.2158 15.377 36.0224 15.1693C36.0034 15.2627 35.9521 15.3465 35.8777 15.4061C35.8032 15.4657 35.7102 15.4973 35.6148 15.4953C35.4659 15.4813 35.3221 15.4341 35.1938 15.3572C35.0656 15.2802 34.9562 15.1755 34.8738 15.0507C34.9121 15.3157 34.9295 15.5833 34.9257 15.851C34.9257 18.4373 32.6432 20.3937 29.6123 20.3937C23.9581 20.3937 22.0684 13.9391 26.9371 11.5604C26.5186 11.1634 26.1792 10.6906 25.9367 10.1672L23.2393 9.30757C23.0875 9.42079 22.9025 9.48071 22.7132 9.47801C22.1203 9.52989 20.6382 8.38126 20.2751 7.34379C18.956 3.16427 23.6098 0.288999 26.2183 3.34953ZM7.2104 7.62539L3.9646 2.32689L4.05353 2.22314L9.37427 5.48376L29.642 24.5584L49.8874 5.5134L55.223 2.22314L55.3193 2.31206L52.0735 7.61057L33.0953 27.8042L38.8532 33.2212L39.6758 32.4061C40.102 31.8905 40.3606 31.2571 40.4168 30.5905V30.4275C40.4835 30.1202 40.6416 29.8403 40.8705 29.6247C41.0993 29.4091 41.3881 29.2678 41.6988 29.2196C42.03 29.1861 42.3631 29.2612 42.6479 29.4337C42.9326 29.6061 43.1535 29.8665 43.2773 30.1755L43.344 30.3089L43.2773 30.4423C42.5703 31.724 41.7858 32.9614 40.9282 34.1475C40.2909 35.0368 40.5354 36.2818 41.5729 37.3563L45.1225 41.0615C45.8251 41.7616 46.384 42.5923 46.7676 43.507C47.2147 43.3998 47.6845 43.4414 48.1057 43.6255C48.527 43.8095 48.8767 44.126 49.1017 44.5269C49.3268 44.9278 49.4149 45.3911 49.3527 45.8466C49.2904 46.3021 49.0813 46.7248 48.757 47.0506C48.4327 47.3765 48.011 47.5876 47.5558 47.652C47.1006 47.7163 46.6368 47.6304 46.2349 47.4073C45.833 47.1841 45.5149 46.8359 45.3288 46.4156C45.1427 45.9952 45.0989 45.5256 45.204 45.078C44.2908 44.6918 43.4605 44.1332 42.7585 43.4329C41.7878 42.4844 40.654 41.3876 39.0533 39.8759C37.9788 38.8458 36.7264 38.6013 35.8371 39.2386C34.6528 40.0966 33.4152 40.8787 32.1319 41.5803L31.9985 41.6544L31.8725 41.5877C31.5711 41.4584 31.3187 41.2364 31.1521 40.9539C30.9855 40.6713 30.9134 40.343 30.9462 40.0167C30.9945 39.706 31.1357 39.4172 31.3513 39.1883C31.567 38.9595 31.8468 38.8013 32.1541 38.7346H32.3172C32.9853 38.6851 33.6207 38.4258 34.1327 37.9936L34.9479 37.1784L29.642 31.4798L24.3286 37.1266L25.1512 37.9417C25.6596 38.3751 26.2931 38.6347 26.9594 38.6828H27.1298C27.4436 38.753 27.7278 38.9191 27.9429 39.1581C28.1581 39.3971 28.2934 39.6972 28.3303 40.0167C28.3663 40.3482 28.2922 40.6824 28.1195 40.9677C27.9467 41.2529 27.6849 41.4734 27.3744 41.5951L27.241 41.6618L27.115 41.5877C25.8312 40.887 24.5936 40.1048 23.4097 39.246C22.5205 38.6087 21.2755 38.8532 20.201 39.8833C18.63 41.3654 17.4962 42.4918 16.4958 43.4403C15.8027 44.1358 14.9826 44.6918 14.0799 45.078C14.1739 45.5219 14.122 45.9843 13.9318 46.3962C13.7416 46.8082 13.4234 47.1476 13.0245 47.364C12.6257 47.5803 12.1676 47.662 11.7186 47.5968C11.2696 47.5316 10.8537 47.323 10.5328 47.0022C10.212 46.6814 10.0035 46.2654 9.93827 45.8164C9.87308 45.3674 9.95474 44.9093 10.1711 44.5105C10.3874 44.1117 10.7269 43.7935 11.1388 43.6033C11.5508 43.4131 12.0131 43.3611 12.457 43.4551C12.846 42.5434 13.4043 41.7136 14.1022 41.0097C15.0507 40.0389 16.1475 38.9051 17.6592 37.3044C18.6893 36.2299 18.9412 34.9849 18.3039 34.0957C17.4431 32.9117 16.6585 31.6741 15.9548 30.3904L15.8881 30.257L15.9548 30.1237C16.0785 29.8146 16.2994 29.5542 16.5842 29.3818C16.8689 29.2093 17.202 29.1342 17.5332 29.1677C17.8435 29.2169 18.1318 29.3585 18.3605 29.574C18.5892 29.7894 18.7476 30.0688 18.8152 30.3756V30.5386C18.8648 31.2068 19.1241 31.8422 19.5563 32.3542L20.3789 33.1694L26.1294 27.7523L7.22522 7.64762L7.2104 7.62539Z" fill="#C72035"/>
<path d="M36.7412 35.3333L8.34422 6.93624L7.78102 6.04698L8.66287 6.61759L37.0599 35.0146L38.4531 33.6214L9.0334 5.94323L5.06137 3.36438L7.66987 7.30676L35.3481 36.7264L36.7412 35.3333Z" fill="white"/>
<path d="M50.6211 6.61758L51.5029 6.04697L50.9397 6.93623L31.5317 26.3369L32.6877 27.4188L51.6141 7.30675L54.1337 3.43848L50.2506 5.94322L30.0496 24.9437L31.2056 26.0331L50.6211 6.61758Z" fill="white"/>
<path d="M18.3113 30.6943L18.2743 30.5312C18.2272 30.3421 18.1256 30.1709 17.9819 30.0392C17.8383 29.9074 17.659 29.8208 17.4665 29.7902C17.2762 29.7747 17.0857 29.8174 16.9203 29.9127C16.7548 30.008 16.6223 30.1514 16.5402 30.3237C17.2317 31.5646 18.0014 32.7601 18.8449 33.903C19.5223 34.8248 20.2653 35.6965 21.068 36.5115V36.5115C21.882 37.3125 22.7511 38.0554 23.6691 38.7347C24.8147 39.5802 26.0127 40.3524 27.2558 41.0467C27.4281 40.9631 27.5708 40.8289 27.6648 40.6621C27.7588 40.4952 27.7997 40.3037 27.7819 40.113C27.7513 39.9205 27.6647 39.7413 27.533 39.5976C27.4012 39.454 27.2301 39.3523 27.0409 39.3053H26.8779C26.0985 39.2338 25.3617 38.9173 24.7733 38.4012L19.2376 32.8581C18.6942 32.2616 18.3679 31.4992 18.3113 30.6943V30.6943Z" fill="#FFD91E"/>
<path d="M22.5353 35.3333L23.9359 36.7264L29.2566 31.0722L28.0635 29.805L22.5353 35.3333Z" fill="white"/>
<path d="M19.2673 35.2962C19.1871 36.2233 18.7644 37.0872 18.0816 37.7194L14.5246 41.4247C13.8767 42.0615 13.3561 42.8161 12.9906 43.6478C13.1905 43.7463 13.3732 43.8764 13.5316 44.0332C13.6864 44.1932 13.8163 44.3755 13.9169 44.5741C14.7446 44.2014 15.4979 43.6817 16.1401 43.0402C17.1108 42.0916 18.2446 40.9949 19.8453 39.4831C20.4734 38.819 21.3214 38.4055 22.2315 38.3197C21.6737 37.8708 21.1394 37.3934 20.6308 36.8894C20.1862 36.4152 19.7193 35.889 19.2673 35.2962Z" fill="#FFD91E"/>
<path d="M38.6161 36.8894C38.1196 37.3925 37.5977 37.8699 37.0525 38.3197C37.975 38.3934 38.8379 38.805 39.4757 39.4757C41.0542 40.9578 42.188 42.0842 43.181 43.0327C43.8218 43.6759 44.5754 44.1959 45.4041 44.5667C45.6002 44.1627 45.9265 43.8365 46.3304 43.6404C45.9622 42.8102 45.4419 42.0562 44.7965 41.4173C43.8479 40.4465 42.7512 39.3127 41.2394 37.712C40.5674 37.076 40.1577 36.2116 40.0908 35.2888C39.5646 35.889 39.0904 36.4152 38.6161 36.8894Z" fill="#FFD91E"/>
<path d="M46.1526 46.612C46.3689 46.8292 46.6449 46.9773 46.9455 47.0376C47.2461 47.0978 47.5578 47.0675 47.8412 46.9504C48.1245 46.8334 48.3668 46.6349 48.5372 46.38C48.7076 46.1252 48.7986 45.8255 48.7986 45.519C48.7986 45.2124 48.7076 44.9127 48.5372 44.6579C48.3668 44.4031 48.1245 44.2045 47.8412 44.0875C47.5578 43.9704 47.2461 43.9401 46.9455 44.0004C46.6449 44.0606 46.3689 44.2087 46.1526 44.4259C45.8634 44.7162 45.701 45.1092 45.701 45.519C45.701 45.9287 45.8634 46.3217 46.1526 46.612V46.612Z" fill="#FFD91E"/>
<path d="M32.4283 39.2756H32.2579C32.0696 39.3244 31.8994 39.4266 31.7679 39.5699C31.6364 39.7133 31.5492 39.8916 31.5168 40.0834C31.5008 40.2747 31.5432 40.4664 31.6385 40.6331C31.7338 40.7999 31.8774 40.9337 32.0504 41.0171C33.2918 40.3239 34.4874 39.5516 35.6297 38.705C36.5514 38.0276 37.4232 37.2846 38.2381 36.4819V36.4819C39.0409 35.6669 39.7839 34.7951 40.4613 33.8734C41.302 32.7285 42.0716 31.5332 42.766 30.2941C42.6826 30.1211 42.5487 29.9775 42.382 29.8822C42.2153 29.7869 42.0236 29.7445 41.8322 29.7605C41.6405 29.7929 41.4621 29.8802 41.3188 30.0116C41.1755 30.1431 41.0733 30.3133 41.0245 30.5016V30.6646C40.953 31.444 40.6365 32.1808 40.1204 32.7692L34.5774 38.3123C33.9849 38.8585 33.2304 39.1968 32.4283 39.2756V39.2756Z" fill="#FFD91E"/>
<path d="M36.4744 14.3022C35.8656 13.4437 35.3513 12.5219 34.9405 11.5529C34.8591 11.5606 34.7773 11.5606 34.6959 11.5529C34.6572 11.7586 34.5563 11.9474 34.4069 12.0939C34.9108 13.0202 35.3406 13.7761 35.8001 14.4505C35.8742 14.5542 35.9483 14.6505 36.015 14.7543C36.304 15.1396 36.6968 15.2582 36.8302 15.1619C36.9635 15.0655 36.8302 14.858 36.6745 14.5764C36.6004 14.4949 36.5189 14.3615 36.4744 14.3022Z" fill="#FFD91E"/>
<path d="M24.1953 58.906L24.7436 59.2988V56.1715L24.1953 55.9048V58.906Z" fill="#FFD91E"/>
<path d="M34.8293 57.1868V59.0987C35.5704 59.0987 36.0076 58.7949 36.0076 58.3576V57.172C35.9262 57.1793 35.8444 57.1793 35.763 57.172L34.8293 57.1868Z" fill="#FFD91E"/>
<path d="M25.9738 55.89H26.3221C26.3184 55.917 26.3184 55.9444 26.3221 55.9715C26.3221 56.1287 26.3846 56.2795 26.4957 56.3907C26.6069 56.5019 26.7577 56.5643 26.9149 56.5643C27.0664 56.5644 27.2121 56.5058 27.3212 56.4008C27.4304 56.2957 27.4946 56.1525 27.5004 56.0011V55.8455H27.656C27.8087 55.8416 27.9538 55.7782 28.0604 55.6689C28.167 55.5595 28.2266 55.4128 28.2266 55.2601C28.2267 55.1066 28.1673 54.9591 28.0609 54.8485C27.9545 54.738 27.8093 54.673 27.656 54.6672H27.5004V54.5116C27.4789 54.3665 27.4044 54.2345 27.2913 54.1411C27.1781 54.0478 27.0344 53.9996 26.8878 54.0061C26.7413 54.0125 26.6023 54.0731 26.4978 54.1761C26.3933 54.279 26.3307 54.417 26.3221 54.5635C26.3184 54.598 26.3184 54.6327 26.3221 54.6672H25.0845C24.9656 54.6585 24.8496 54.6257 24.7437 54.5709L23.8322 54.0966C23.1875 53.7706 23.0467 53.7039 23.0392 53.274C22.8021 53.3778 22.6909 53.489 22.6909 54.067C22.6909 54.645 22.8392 54.808 23.1726 54.9562C23.3505 55.0526 24.7511 55.8084 24.9511 55.9048L25.9738 55.89ZM26.9001 54.8377C26.9766 54.8377 27.0514 54.8605 27.1149 54.9032C27.1785 54.9458 27.2278 55.0065 27.2568 55.0773C27.2857 55.1482 27.2929 55.226 27.2774 55.301C27.2619 55.3759 27.2245 55.4445 27.1699 55.4981C27.1152 55.5517 27.0459 55.5878 26.9706 55.6018C26.8954 55.6159 26.8177 55.6072 26.7474 55.5769C26.6772 55.5465 26.6175 55.496 26.5761 55.4317C26.5346 55.3673 26.5133 55.2921 26.5148 55.2156C26.5148 55.1653 26.5248 55.1156 26.5442 55.0692C26.5637 55.0229 26.5922 54.9809 26.6281 54.9457C26.6639 54.9105 26.7065 54.8828 26.7532 54.8643C26.7999 54.8457 26.8499 54.8367 26.9001 54.8377Z" fill="#FFD91E"/>
<path d="M36.6597 47.4939C36.6977 47.3374 36.6987 47.1743 36.6626 47.0173C36.6266 46.8604 36.5546 46.714 36.4522 46.5898C36.3694 46.7232 36.2498 46.8298 36.1078 46.8968C35.9659 46.9639 35.8075 46.9885 35.6519 46.9677H34.5181V44.9521H25.0845V47.6272H26.0034C26.0559 47.4275 26.1731 47.2508 26.3367 47.1247C26.5002 46.9987 26.701 46.9304 26.9075 46.9307C27.1197 46.9342 27.3244 47.0093 27.4886 47.1438C27.6527 47.2783 27.7665 47.4644 27.8116 47.6717C28.027 47.7106 28.2219 47.8239 28.3623 47.9918C28.5027 48.1598 28.5796 48.3717 28.5796 48.5906C28.5796 48.8095 28.5027 49.0214 28.3623 49.1894C28.2219 49.3574 28.027 49.4707 27.8116 49.5095C27.7668 49.712 27.6559 49.8937 27.4964 50.0262C27.3368 50.1586 27.1378 50.2342 26.9305 50.241C26.7233 50.2478 26.5197 50.1854 26.3518 50.0637C26.184 49.942 26.0614 49.7679 26.0034 49.5688H25.0845V54.3189H26.0034C26.0559 54.1192 26.1731 53.9425 26.3367 53.8164C26.5002 53.6904 26.701 53.6221 26.9075 53.6223C27.1197 53.6258 27.3244 53.701 27.4886 53.8355C27.6527 53.97 27.7665 54.156 27.8116 54.3634C28.0228 54.4061 28.2128 54.5206 28.3492 54.6874C28.4857 54.8542 28.5602 55.0631 28.5602 55.2786C28.5602 55.4941 28.4857 55.703 28.3492 55.8698C28.2128 56.0366 28.0228 56.1511 27.8116 56.1938C27.7677 56.3965 27.6576 56.5789 27.4986 56.7121C27.3396 56.8453 27.1407 56.9217 26.9334 56.9294C26.7261 56.937 26.5222 56.8754 26.3538 56.7543C26.1854 56.6332 26.0621 56.4594 26.0034 56.2605H25.0845V59.3729H34.5181V56.8459H35.7927C35.987 56.8709 36.1836 56.8225 36.344 56.7101C36.5044 56.5977 36.617 56.4294 36.6597 56.2382C36.6977 56.0818 36.6987 55.9186 36.6626 55.7617C36.6266 55.6048 36.5546 55.4584 36.4522 55.3342C36.3697 55.4683 36.2504 55.5758 36.1086 55.6441C35.9667 55.7125 35.8082 55.7386 35.6519 55.7195H34.5181V53.9336H35.7927C35.9829 53.9598 36.1761 53.9155 36.3359 53.809C36.4956 53.7025 36.6108 53.5412 36.6597 53.3556C36.6976 53.2003 36.6986 53.0383 36.6626 52.8826C36.6265 52.7268 36.5545 52.5817 36.4522 52.4589C36.3694 52.5923 36.2498 52.6989 36.1078 52.7659C35.9659 52.833 35.8075 52.8576 35.6519 52.8368H34.5181V51.0138H35.7927C35.9891 51.0384 36.1874 50.9879 36.3482 50.8725C36.5089 50.7571 36.6202 50.5852 36.6597 50.3914C36.6977 50.2349 36.6987 50.0718 36.6626 49.9148C36.6266 49.7579 36.5546 49.6115 36.4522 49.4873C36.3697 49.6214 36.2504 49.729 36.1086 49.7973C35.9667 49.8656 35.8082 49.8917 35.6519 49.8726H34.5181V48.1015H35.7927C35.9867 48.1249 36.1825 48.0757 36.3425 47.9636C36.5025 47.8515 36.6155 47.6842 36.6597 47.4939V47.4939Z" fill="#FFD91E"/>
<path d="M34.8293 48.4424V49.5466H35.6222C35.7557 49.5547 35.8888 49.5265 36.0076 49.4651V48.4276H35.763L34.8293 48.4424Z" fill="#FFD91E"/>
<path d="M23.9063 47.0418V43.7219H34.4366C34.5085 43.7122 34.5817 43.717 34.6517 43.7361C34.7217 43.7552 34.7872 43.7882 34.8442 43.8331C34.8886 43.885 34.9331 44.0109 34.7552 44.0109H24.1953V47.1752L24.7437 47.4716V44.6112H34.985C35.5407 44.6112 35.9261 44.463 36.015 44.2258C36.0371 44.1406 36.0334 44.0508 36.0044 43.9676C35.9754 43.8845 35.9223 43.8119 35.852 43.759C35.2422 43.3351 34.501 43.1433 33.7622 43.218H23.3875V46.3304V46.5231C23.3801 46.7676 23.3801 46.7825 23.9063 47.0418Z" fill="#FFD91E"/>
<path d="M34.8293 44.9521V46.6268H35.6222C35.7557 46.6349 35.8888 46.6068 36.0076 46.5453V44.7075C35.6656 44.8871 35.2817 44.9716 34.896 44.9521H34.8293Z" fill="#FFD91E"/>
<path d="M34.8293 51.3621V52.4589H35.6222C35.7557 52.467 35.8888 52.4388 36.0076 52.3774V51.3399C35.9262 51.3472 35.8444 51.3472 35.763 51.3399L34.8293 51.3621Z" fill="#FFD91E"/>
<path d="M23.3801 58.328L23.9063 58.6985V55.7343L23.3801 55.4527V58.328Z" fill="#FFD91E"/>
<path d="M24.7881 49.1167C24.8946 49.1681 25.0108 49.1959 25.129 49.1983H26.3221C26.3184 49.2253 26.3184 49.2527 26.3221 49.2798C26.3221 49.437 26.3846 49.5878 26.4957 49.699C26.6069 49.8102 26.7577 49.8726 26.9149 49.8726C27.0664 49.8727 27.2121 49.8141 27.3212 49.7091C27.4304 49.6041 27.4946 49.4608 27.5004 49.3094V49.1538H27.656C27.8112 49.1538 27.9601 49.0921 28.0699 48.9823C28.1797 48.8725 28.2414 48.7236 28.2414 48.5684C28.2414 48.4131 28.1797 48.2642 28.0699 48.1544C27.9601 48.0446 27.8112 47.9829 27.656 47.9829H27.5004V47.8273C27.4789 47.6822 27.4044 47.5502 27.2912 47.4568C27.1781 47.3635 27.0344 47.3154 26.8878 47.3218C26.7413 47.3283 26.6023 47.3888 26.4978 47.4918C26.3933 47.5947 26.3307 47.7328 26.3221 47.8792C26.3184 47.9137 26.3184 47.9485 26.3221 47.9829H25.0475C24.954 47.9794 24.8626 47.954 24.7807 47.9088L23.8396 47.4272C23.1874 47.1085 23.0467 47.0344 23.0392 46.612C22.8021 46.7083 22.6909 46.8195 22.6909 47.3975C22.6909 47.9755 22.8466 48.1386 23.1726 48.2868C23.4987 48.435 24.6992 49.0871 24.7881 49.1167ZM26.9001 48.1682C26.9766 48.1682 27.0514 48.191 27.1149 48.2337C27.1785 48.2764 27.2278 48.337 27.2568 48.4078C27.2857 48.4787 27.2929 48.5565 27.2774 48.6315C27.2619 48.7064 27.2245 48.7751 27.1699 48.8287C27.1152 48.8822 27.0459 48.9183 26.9706 48.9324C26.8954 48.9464 26.8177 48.9377 26.7474 48.9074C26.6772 48.8771 26.6175 48.8265 26.5761 48.7622C26.5346 48.6979 26.5133 48.6227 26.5148 48.5461C26.5148 48.4959 26.5248 48.4461 26.5442 48.3998C26.5637 48.3534 26.5922 48.3114 26.6281 48.2762C26.6639 48.241 26.7065 48.2134 26.7532 48.1948C26.7999 48.1763 26.8499 48.1672 26.9001 48.1682Z" fill="#FFD91E"/>
<path d="M24.7436 54.1707V49.4651L24.1953 49.1835V53.8743L24.7436 54.1707Z" fill="#FFD91E"/>
<path d="M25.6774 14.6061C26.1542 14.2727 26.7376 14.1275 27.3151 14.1985C27.3666 13.9699 27.4762 13.7584 27.6333 13.5845C27.7903 13.4105 27.9896 13.28 28.2118 13.2055C28.3689 13.1489 28.5378 13.1336 28.7026 13.1608C28.8673 13.188 29.0223 13.257 29.1529 13.3611C29.3974 13.3018 29.5975 13.2425 29.6568 13.3018C29.7161 13.3611 29.5308 13.5538 29.4197 13.7761C29.4498 13.9228 29.4498 14.074 29.4197 14.2207C29.5736 14.2307 29.7221 14.2819 29.8495 14.3689C30.0347 14.28 30.2941 14.1837 30.3682 14.2355C30.4423 14.2874 30.2941 14.4949 30.1681 14.7543C30.4497 15.436 29.7309 16.2957 29.0417 16.5624C28.9602 16.7848 28.938 16.9922 28.8787 17.2072C29.1204 17.1381 29.3689 17.0959 29.6198 17.0812L30.1755 17.0145C30.288 17.0094 30.3979 16.9787 30.4968 16.9248C30.5957 16.8708 30.6809 16.7951 30.7461 16.7032C30.7774 16.6 30.7924 16.4925 30.7906 16.3846C30.7906 16.1475 30.7017 14.4875 30.6572 13.5538C30.5278 13.5577 30.3988 13.5361 30.2777 13.4902C30.1566 13.4443 30.0458 13.375 29.9515 13.2862C29.8572 13.1974 29.7813 13.0909 29.7282 12.9728C29.6751 12.8547 29.6458 12.7273 29.642 12.5978C29.0863 12.5894 28.5367 12.4814 28.0191 12.2792V12.2792C27.4513 12.4116 26.9316 12.6994 26.518 13.1103C26.1045 13.5212 25.8134 14.0391 25.6774 14.6061V14.6061Z" fill="#FFD91E"/>
<path d="M30.383 17.4295C29.9606 17.6444 29.264 18.0149 29.2048 18.3558C29.1869 18.6298 29.257 18.9024 29.4048 19.1339C29.6151 18.7484 29.9349 18.4338 30.3237 18.2298C30.7534 17.8911 31.2645 17.6713 31.8058 17.5925C31.9187 17.609 32.0272 17.6476 32.1251 17.7061C32.223 17.7646 32.3084 17.8418 32.3765 17.9334C32.4435 17.9179 32.513 17.9164 32.5806 17.9292C32.6482 17.9419 32.7125 17.9686 32.7692 18.0075C32.8195 18.0455 32.8666 18.0877 32.91 18.1335C33.0212 17.9704 33.1546 17.7704 33.0804 17.6221C32.9545 17.2961 32.8063 17.1479 32.5543 17.1034C32.1615 17.0219 31.6873 16.8515 31.6725 16.4958C31.6725 16.2734 31.7095 14.2356 31.7317 13.5316C31.4737 13.568 31.2117 13.568 30.9536 13.5316C30.9536 14.1318 31.1093 16.0734 31.087 16.355C31.1101 16.5875 31.0529 16.821 30.9248 17.0165C30.7967 17.2121 30.6055 17.3578 30.383 17.4295V17.4295Z" fill="#FFD91E"/>
<path d="M32.6062 16.8218C32.697 16.8368 32.7847 16.8668 32.8655 16.9108C33.2524 16.3644 33.4171 15.6915 33.3263 15.0282C33.2355 14.365 32.8959 13.7611 32.3765 13.3389C32.2548 13.415 32.1224 13.4724 31.9837 13.5093C31.9837 14.5246 31.9096 16.2809 31.9244 16.4735C31.9392 16.6662 32.1912 16.7403 32.6062 16.8218Z" fill="#FFD91E"/>
<path d="M27.3595 14.658L27.3151 14.4875C27.0044 14.4409 26.6872 14.4676 26.3887 14.5654C26.0902 14.6632 25.8187 14.8294 25.5958 15.0507C25.5958 15.1619 25.5958 15.273 25.5958 15.3768C25.5911 15.8896 25.7381 16.3923 26.0182 16.8218C26.4924 16.1131 27.1964 15.5897 28.0117 15.3397C28.0783 15.0785 28.215 14.8404 28.4069 14.651C28.5989 14.4617 28.8389 14.3283 29.101 14.2652C29.153 14.1751 29.1804 14.0728 29.1804 13.9688C29.1804 13.8647 29.153 13.7625 29.101 13.6724C29.0073 13.5752 28.8874 13.5074 28.7558 13.4771C28.6242 13.4468 28.4867 13.4555 28.36 13.5019C28.1473 13.5701 27.9614 13.7034 27.8284 13.8829C27.6955 14.0623 27.6222 14.279 27.6189 14.5023C27.6123 14.5936 27.6123 14.6852 27.6189 14.7765C27.5522 14.821 27.4188 14.858 27.3595 14.658ZM28.6045 13.702C28.6045 13.702 28.7008 13.702 28.6045 13.8132C28.5458 13.9137 28.4641 13.9989 28.3663 14.062C28.2684 14.1251 28.1571 14.1642 28.0413 14.1763C27.987 14.1763 27.9647 14.154 27.9746 14.1096C27.9857 14.0397 28.0113 13.9729 28.0499 13.9135C28.0885 13.8542 28.1392 13.8037 28.1986 13.7652C28.258 13.7268 28.3249 13.7013 28.3948 13.6904C28.4648 13.6795 28.5362 13.6834 28.6045 13.702V13.702Z" fill="#FFD91E"/>
<path d="M27.9746 18.1854C28.0032 18.0711 28.0651 17.9679 28.1525 17.8889C28.1525 17.8889 28.1525 17.8445 28.2044 17.7778C28.2251 17.6596 28.2821 17.5509 28.3674 17.4665C28.4061 17.4304 28.4483 17.3981 28.4934 17.3702C28.6934 16.9256 28.6045 16.8144 28.7972 16.3327C29.4197 16.1697 30.2793 15.2212 29.7531 14.6728C29.6915 14.6135 29.6181 14.5677 29.5377 14.5383C29.4573 14.509 29.3717 14.4967 29.2863 14.5023V14.5023C29.1947 14.5074 29.1046 14.5274 29.0195 14.5616C28.8746 14.6139 28.7417 14.6945 28.6284 14.7989C28.5152 14.9032 28.4239 15.0292 28.36 15.1693C28.2525 15.4016 28.234 15.6653 28.3081 15.9103C28.3526 16.0363 28.2488 16.066 28.1895 15.9622C28.13 15.8619 28.0898 15.7513 28.071 15.6361C27.2929 15.894 26.6313 16.4191 26.2035 17.1182C26.6832 17.6317 27.2965 18.0012 27.9746 18.1854V18.1854ZM29.2715 14.7765C29.2715 14.7765 29.3678 14.7765 29.3159 14.8877C29.2612 14.9905 29.1831 15.0789 29.0878 15.1459C28.9925 15.2128 28.8828 15.2564 28.7676 15.273C28.7157 15.273 28.6934 15.273 28.7009 15.2137C28.7081 15.1469 28.7288 15.0823 28.7617 15.0237C28.7947 14.9651 28.8392 14.9138 28.8925 14.8729C28.9459 14.832 29.007 14.8024 29.0721 14.7858C29.1372 14.7693 29.2051 14.7661 29.2715 14.7765V14.7765Z" fill="#FFD91E"/>
<path d="M30.0718 17.2442L29.6716 17.3183C29.2792 17.3524 28.8994 17.474 28.5601 17.674C28.5153 17.7236 28.4869 17.7857 28.4785 17.8519C28.4622 17.9555 28.4097 18.05 28.3303 18.1187C28.2897 18.1516 28.2572 18.1935 28.2354 18.2411C28.2135 18.2886 28.2029 18.3406 28.2044 18.3929C28.4204 18.2862 28.6605 18.2376 28.9009 18.2521C29.0417 17.8222 29.5308 17.5332 30.0718 17.2442Z" fill="#FFD91E"/>
<path d="M32.784 12.6423C32.7626 12.8121 32.7016 12.9745 32.6062 13.1166C33.175 13.601 33.5399 14.2824 33.6279 15.0244C33.7158 15.7664 33.5203 16.5142 33.0804 17.1182C33.1765 17.2395 33.2539 17.3743 33.3102 17.5184C33.4658 17.9705 33.0953 18.1483 32.9693 18.4966L32.8655 18.7189H32.8137C32.8137 18.3929 32.6877 18.2446 32.5543 18.1928H32.458C32.3701 18.2286 32.2717 18.2286 32.1838 18.1928C32.135 18.1605 32.0944 18.1174 32.0652 18.0668C32.0314 18.0127 31.9845 17.968 31.9288 17.9369C31.873 17.9058 31.8104 17.8893 31.7465 17.8889C31.2783 18.0129 30.8347 18.2159 30.4349 18.4892C29.9599 18.734 29.5889 19.1418 29.39 19.6378H29.3381C29.3381 19.6378 29.0936 19.2376 29.0417 19.1191C28.9481 18.9356 28.8998 18.7323 28.9009 18.5262C28.7473 18.4952 28.5879 18.5136 28.4454 18.5788C28.3029 18.644 28.1848 18.7528 28.108 18.8894H28.0117C27.9712 18.7619 27.9463 18.63 27.9376 18.4966C26.2406 17.9779 25.2624 16.8441 25.2624 15.3694C25.2614 14.642 25.4912 13.933 25.9187 13.3445C26.3461 12.7559 26.9492 12.3181 27.6411 12.0939C27.4784 12.004 27.3224 11.9024 27.1743 11.7901C26.381 12.0946 25.6976 12.6304 25.2126 13.3281C24.7276 14.0258 24.4636 14.8532 24.4546 15.7028C24.4546 18.4225 27.0557 20.0454 29.5679 20.0454C32.3987 20.0454 34.5403 18.2372 34.5403 15.8436C34.5813 15.1984 34.4379 14.5548 34.1269 13.988C33.816 13.4211 33.3502 12.9544 32.784 12.6423V12.6423Z" fill="#FFD91E"/>
<path d="M34.1846 12.3088C33.9415 12.4883 33.6493 12.5891 33.3472 12.5978C33.8484 12.9951 34.2515 13.5021 34.5255 14.0799C34.6648 14.3369 34.8208 14.5844 34.9924 14.821C35.4889 15.4509 35.9335 15.3101 35.5704 14.658C35.0684 13.8992 34.6059 13.1152 34.1846 12.3088Z" fill="#FFD91E"/>
<path d="M27.9894 10.0264C27.7497 10.1112 27.4881 10.1112 27.2484 10.0264C26.8705 9.93747 24.84 9.0408 23.8988 8.62582C23.595 8.55171 23.4542 8.62582 23.2764 9.04821C24.84 9.55954 27.115 10.3376 27.3151 10.3525C27.4477 10.3787 27.5851 10.361 27.7068 10.3022C27.8285 10.2434 27.9277 10.1466 27.9894 10.0264V10.0264Z" fill="#FFD91E"/>
<path d="M23.8321 8.32198L23.9729 8.38126C24.84 8.76661 26.9371 9.68551 27.278 9.77443C27.4117 9.80598 27.5483 9.82337 27.6856 9.82631C27.3151 9.5373 26.6852 9.03338 26.2628 8.71473C25.8429 8.41293 25.3874 8.16403 24.9067 7.97368C24.4027 7.75137 23.9655 7.66985 23.6913 7.14371C23.571 7.19836 23.4711 7.2899 23.4063 7.40508C23.3414 7.52027 23.3149 7.65311 23.3306 7.78436C23.3463 7.91561 23.4033 8.03847 23.4935 8.13513C23.5837 8.23178 23.7023 8.29723 23.8321 8.32198Z" fill="#FFD91E"/>
<path d="M25.0623 7.76621L25.3365 7.86255C24.7955 3.46071 22.2315 4.77978 23.4913 6.46196C23.5892 6.50845 23.6765 6.57453 23.7479 6.6561C23.8193 6.73767 23.8732 6.83301 23.9063 6.93623C24.1508 7.46979 24.551 7.58836 25.0623 7.76621Z" fill="#C72035"/>
<path d="M34.8293 54.2745V55.3712H35.6222C35.7559 55.3817 35.8897 55.3534 36.0076 55.2897V54.2596H35.763L34.8293 54.2745Z" fill="#FFD91E"/>
<path d="M23.3801 53.0221V53.2073C23.3801 53.4593 23.3801 53.4741 23.9063 53.7335V49.0352L23.3801 48.761V53.0221V53.0221Z" fill="#FFD91E"/>
<path d="M29.642 66.1016C39.5646 61.1885 45.8339 56.053 50.8434 48.598C56.92 39.5572 59.284 30.5386 59.284 16.4291V0H0V16.4291C0 30.509 2.36395 39.5572 8.44055 48.598C13.4575 56.053 19.7193 61.1885 29.642 66.1016ZM0.800333 0.800333H58.4836V16.4291C58.4836 30.383 56.1567 39.2756 50.1765 48.1682C45.2781 55.4305 39.3201 60.3881 29.642 65.2124C19.9639 60.3881 14.0058 55.4305 9.1075 48.1682C3.12723 39.2756 0.800333 30.383 0.800333 16.4291V0.800333Z" fill="white"/>
<path d="M28.5008 11.716C28.7898 11.716 29.0788 11.464 28.7824 10.7823C28.6807 10.5875 28.6035 10.3809 28.5526 10.1672C28.5526 10.0783 28.4785 10.0857 28.4563 10.1672C28.4043 10.3758 28.3271 10.5774 28.2266 10.7674C27.9005 11.3899 28.2043 11.716 28.5008 11.716Z" fill="black"/>
<path d="M22.7354 9.47804C22.9248 9.48073 23.1097 9.42082 23.2615 9.30759L25.9367 10.1672C26.1601 10.6826 26.4766 11.1524 26.8705 11.553C22.0018 13.9317 23.9063 20.3641 29.5456 20.3863C32.5765 20.3863 34.859 18.4299 34.859 15.8437C34.8702 15.5765 34.8602 15.3089 34.8293 15.0433C34.9118 15.1681 35.0211 15.2728 35.1494 15.3498C35.2776 15.4267 35.4215 15.4739 35.5704 15.4879C35.6657 15.4899 35.7587 15.4583 35.8332 15.3987C35.9077 15.3391 35.9589 15.2553 35.978 15.1619C36.1713 15.3696 36.436 15.4966 36.719 15.5176C36.7872 15.5228 36.8557 15.5114 36.9185 15.4842C36.9814 15.4571 37.0367 15.4152 37.0797 15.3619C37.1227 15.3087 37.1521 15.2458 37.1655 15.1787C37.1788 15.1116 37.1756 15.0422 37.1562 14.9766C37.2717 15.0331 37.3982 15.0635 37.5268 15.0655C37.6159 15.0729 37.7054 15.0544 37.7844 15.0124C37.8634 14.9703 37.9286 14.9065 37.9724 14.8284C38.0161 14.7503 38.0365 14.6613 38.031 14.5719C38.0256 14.4826 37.9946 14.3967 37.9417 14.3245C37.875 14.2208 37.7861 14.0651 37.6824 13.8799C37.1091 12.9214 36.5896 11.9318 36.1262 10.9157C36.1984 10.8948 36.2641 10.856 36.3172 10.8029C36.3704 10.7498 36.4092 10.684 36.43 10.6118C36.4745 10.3969 36.43 10.2117 35.9705 9.98195C36.2818 9.81151 36.3337 9.35206 35.7186 9.01858C35.6445 8.97412 35.4518 8.84073 35.148 8.6036L34.9924 8.30718C35.249 8.3841 35.5118 8.43865 35.7779 8.47021C36.43 8.52949 36.9191 8.24048 36.9561 7.96629C36.9638 7.88378 36.9457 7.80093 36.9043 7.72916C37.3637 7.72916 37.6453 7.50684 37.6453 7.28453C37.6453 7.06221 37.5786 6.89918 37.26 6.81767C35.7358 6.42778 34.2845 5.79471 32.9619 4.94281C32.6542 4.4661 32.2992 4.02169 31.9022 3.61633C30.8647 2.62333 29.8717 2.30468 28.938 2.68261C28.6958 2.78348 28.4766 2.93219 28.2933 3.11983C27.9515 2.96793 27.5758 2.90852 27.2038 2.94753C26.8319 2.98655 26.4767 3.12263 26.1739 3.34215C23.5654 0.281612 18.9116 3.15688 20.2455 7.3364C20.6605 8.38128 22.1426 9.52991 22.7354 9.47804ZM23.2764 9.026C23.4542 8.6036 23.595 8.52949 23.8989 8.6036C24.84 9.01858 26.863 9.91525 27.2484 10.0042C27.4881 10.0889 27.7497 10.0889 27.9894 10.0042C27.9243 10.1203 27.8237 10.2124 27.7023 10.2671C27.5809 10.3218 27.4452 10.3361 27.3151 10.308C27.115 10.3154 24.84 9.53732 23.2764 9.026ZM24.9289 7.99594C25.4097 8.18629 25.8652 8.43518 26.285 8.73699C26.7074 9.05564 27.3373 9.55955 27.7078 9.84856C27.5705 9.84562 27.4339 9.82824 27.3003 9.79669C26.9372 9.70776 24.8622 8.78886 23.9952 8.40351L23.8544 8.34423C23.7245 8.31948 23.6059 8.25404 23.5158 8.15738C23.4256 8.06072 23.3685 7.93787 23.3529 7.80662C23.3372 7.67536 23.3637 7.54252 23.4285 7.42734C23.4934 7.31216 23.5932 7.22061 23.7136 7.16596C23.9878 7.69211 24.4546 7.77362 24.9289 7.99594ZM23.4913 6.46196C22.2315 4.77978 24.7955 3.46071 25.3365 7.86255L25.0623 7.76621C24.551 7.58836 24.1508 7.46979 23.9063 6.93624C23.8732 6.83302 23.8193 6.73767 23.7479 6.6561C23.6765 6.57453 23.5892 6.50846 23.4913 6.46196V6.46196ZM29.5679 20.0454C27.0557 20.0454 24.4546 18.4225 24.4546 15.7029C24.465 14.8545 24.7298 14.0287 25.2147 13.3325C25.6995 12.6363 26.3822 12.1015 27.1743 11.7975C27.3224 11.9099 27.4784 12.0114 27.6412 12.1014C26.9492 12.3255 26.3461 12.7634 25.9187 13.3519C25.4912 13.9405 25.2615 14.6494 25.2624 15.3768C25.2624 16.8589 26.2406 17.9853 27.9376 18.504C27.9463 18.6375 27.9712 18.7693 28.0117 18.8968H28.071C28.1485 18.7516 28.2722 18.6364 28.4225 18.5693C28.5728 18.5022 28.7411 18.4871 28.9009 18.5263C28.9147 18.7278 28.9756 18.9232 29.0788 19.0969C29.1307 19.2154 29.3752 19.6156 29.3752 19.6156H29.4271C29.626 19.1196 29.9969 18.7118 30.472 18.467C30.8718 18.1937 31.3154 17.9907 31.7836 17.8667C31.8474 17.8671 31.9101 17.8835 31.9658 17.9146C32.0216 17.9457 32.0685 17.9904 32.1023 18.0446C32.1315 18.0952 32.1721 18.1383 32.2208 18.1705C32.3087 18.2064 32.4071 18.2064 32.495 18.1705H32.5914C32.7247 18.2224 32.8433 18.3706 32.8507 18.6967H32.9026L33.0063 18.4744C33.1323 18.1261 33.5029 17.9482 33.3472 17.4962C33.291 17.3521 33.2135 17.2173 33.1175 17.096C33.5466 16.4894 33.7321 15.7437 33.6374 15.0066C33.5427 14.2696 33.1747 13.5951 32.6062 13.1166C32.7017 12.9745 32.7626 12.8121 32.784 12.6423C33.3502 12.9544 33.816 13.4212 34.127 13.988C34.4379 14.5548 34.5813 15.1984 34.5403 15.8437C34.5403 18.2372 32.3987 20.0454 29.5679 20.0454V20.0454ZM28.0858 12.294C28.5833 12.4836 29.1097 12.5863 29.642 12.5979C29.6531 12.8464 29.7578 13.0816 29.9351 13.2562C30.1125 13.4307 30.3492 13.5318 30.5979 13.539C30.6424 14.4727 30.7536 16.1327 30.7313 16.3698C30.7332 16.4777 30.7182 16.5852 30.6869 16.6884C30.6217 16.7803 30.5364 16.856 30.4375 16.91C30.3386 16.9639 30.2288 16.9946 30.1163 16.9997L29.5605 17.0664C29.3096 17.0811 29.0611 17.1234 28.8194 17.1924C28.8787 16.9775 28.9009 16.77 28.9825 16.5476C29.6716 16.2809 30.3904 15.4213 30.1088 14.7395C30.2348 14.4801 30.3756 14.2726 30.3089 14.2208C30.2422 14.1689 29.9755 14.2652 29.7902 14.3541C29.6628 14.2671 29.5144 14.2159 29.3604 14.2059C29.3905 14.0593 29.3905 13.908 29.3604 13.7613C29.4715 13.539 29.6642 13.3537 29.5975 13.287C29.5308 13.2203 29.3382 13.287 29.0936 13.3463C28.9631 13.2422 28.808 13.1732 28.6433 13.146C28.4786 13.1188 28.3096 13.1341 28.1525 13.1907C27.9303 13.2652 27.731 13.3957 27.574 13.5697C27.4169 13.7436 27.3073 13.9551 27.2558 14.1837C26.6783 14.1127 26.095 14.2579 25.6181 14.5913C25.7618 14.0251 26.0606 13.5102 26.4808 13.1044C26.901 12.6986 27.426 12.418 27.9969 12.294H28.0858ZM30.9536 13.5834C31.2117 13.6199 31.4737 13.6199 31.7317 13.5834C31.7317 14.2578 31.6651 16.2957 31.6725 16.5476C31.6725 16.9034 32.1616 17.0738 32.5543 17.1553C32.8063 17.1998 32.9545 17.348 33.0805 17.674C33.1546 17.8223 33.0212 18.0223 32.91 18.1854C32.8666 18.1396 32.8195 18.0974 32.7692 18.0594C32.7125 18.0205 32.6482 17.9938 32.5806 17.9811C32.513 17.9683 32.4435 17.9697 32.3765 17.9853C32.3084 17.8937 32.223 17.8165 32.1251 17.758C32.0272 17.6995 31.9187 17.6609 31.8058 17.6444C31.2645 17.7232 30.7534 17.943 30.3237 18.2817C29.9349 18.4857 29.6151 18.8003 29.4048 19.1858C29.257 18.9543 29.1869 18.6817 29.2048 18.4077C29.264 18.0668 29.9458 17.6666 30.383 17.4814C30.5963 17.4117 30.7808 17.2739 30.908 17.0891C31.0352 16.9043 31.0981 16.6828 31.087 16.4587C31.0722 16.1252 30.9462 14.1837 30.9166 13.5834H30.9536ZM32.0208 13.5168C32.1594 13.4799 32.2918 13.4224 32.4135 13.3463C32.9264 13.7724 33.2588 14.3769 33.3441 15.0382C33.4293 15.6995 33.261 16.3685 32.873 16.9108C32.7898 16.866 32.6996 16.8359 32.6062 16.8218C32.2208 16.7403 31.9541 16.6069 31.9541 16.481C31.9541 16.355 31.9466 14.532 31.9837 13.5168H32.0208ZM27.5745 14.4801C27.5777 14.2568 27.651 14.0401 27.784 13.8606C27.9169 13.6812 28.1028 13.5479 28.3155 13.4797C28.4423 13.4333 28.5798 13.4246 28.7113 13.4549C28.8429 13.4851 28.9628 13.553 29.0566 13.6501C29.1086 13.7403 29.136 13.8425 29.136 13.9466C29.136 14.0506 29.1086 14.1529 29.0566 14.243C28.7944 14.3061 28.5544 14.4395 28.3625 14.6288C28.1705 14.8181 28.0339 15.0563 27.9672 15.3175C27.152 15.5675 26.4479 16.0909 25.9738 16.7996C25.6936 16.3701 25.5467 15.8673 25.5514 15.3546C25.5514 15.2508 25.5514 15.1397 25.5514 15.0285C25.7743 14.8072 26.0458 14.641 26.3443 14.5432C26.6428 14.4454 26.96 14.4187 27.2706 14.4653L27.3151 14.6357C27.3966 14.8358 27.5078 14.8284 27.4929 14.7321C27.5069 14.6468 27.5268 14.5627 27.5522 14.4801H27.5745ZM28.0784 15.5991C28.0972 15.7142 28.1374 15.8248 28.1969 15.9252C28.2562 16.0289 28.36 15.9993 28.3155 15.8733C28.2414 15.6283 28.2599 15.3646 28.3674 15.1322C28.4313 14.9921 28.5226 14.8662 28.6358 14.7619C28.7491 14.6575 28.882 14.5768 29.0269 14.5246C29.112 14.4903 29.2021 14.4703 29.2937 14.4653V14.4653C29.3791 14.4597 29.4647 14.4719 29.5451 14.5013C29.6255 14.5306 29.6989 14.5764 29.7606 14.6357C30.3015 15.1841 29.4271 16.1178 28.8046 16.2957C28.6119 16.7774 28.7009 16.8885 28.5008 17.3332C28.4557 17.3611 28.4135 17.3933 28.3748 17.4295C28.2895 17.5138 28.2325 17.6226 28.2118 17.7407C28.2118 17.8074 28.2118 17.8371 28.1599 17.8519C28.0725 17.9308 28.0106 18.034 27.982 18.1483C27.2917 17.9576 26.6698 17.5747 26.1887 17.0442C26.623 16.3589 27.2838 15.8475 28.0561 15.5991H28.0784ZM28.3526 18.1187C28.4319 18.05 28.4844 17.9555 28.5008 17.8519C28.5091 17.7857 28.5375 17.7236 28.5823 17.674C28.9216 17.474 29.3014 17.3524 29.6939 17.3183L30.094 17.2442C29.5531 17.5332 29.064 17.8223 28.9232 18.2521C28.6827 18.2376 28.4426 18.2862 28.2266 18.3929C28.2224 18.3423 28.2295 18.2915 28.2475 18.244C28.2654 18.1966 28.2937 18.1538 28.3303 18.1187H28.3526ZM35.022 14.7988C34.8504 14.5622 34.6945 14.3146 34.5551 14.0577C34.2698 13.4849 33.8565 12.9854 33.3472 12.5979C33.6469 12.5956 33.9389 12.5026 34.1846 12.3311C34.6072 13.1223 35.0697 13.8915 35.5704 14.6357C35.9335 15.2879 35.4889 15.4287 34.9924 14.821L35.022 14.7988ZM36.8672 15.1989C36.7338 15.2953 36.3411 15.1989 36.0521 14.7914C35.9854 14.6876 35.9113 14.5913 35.8372 14.4875C35.3777 13.8132 34.9479 13.0573 34.444 12.131C34.5934 11.9845 34.6943 11.7957 34.733 11.59C34.8143 11.5977 34.8962 11.5977 34.9775 11.59C35.3884 12.559 35.9027 13.4808 36.5115 14.3393C36.556 14.3986 36.6375 14.532 36.719 14.6506C36.8746 14.8951 36.9191 15.1397 36.8376 15.1989H36.8672ZM29.9236 8.21084C29.6864 7.90701 29.5827 7.52908 29.7976 7.37345C30.0125 7.21783 30.1978 7.37346 30.4645 7.66988C32.0133 9.24831 33.8067 10.5451 35.6 10.9305C34.0883 12.4422 30.2274 8.59619 29.8939 8.21084H29.9236ZM37.7194 14.4653C37.7194 14.5246 37.8158 14.6728 37.7194 14.7395C37.6231 14.8062 37.1859 14.7395 36.8598 14.2874C36.2358 13.4071 35.702 12.4662 35.2665 11.4789C35.5171 11.3869 35.7393 11.231 35.9113 11.0268C36.4391 12.2055 37.0329 13.3534 37.6898 14.4653H37.7194ZM36.1855 10.5377C36.0965 10.7526 35.7408 10.7082 35.4444 10.6193C33.6214 9.97694 31.9848 8.89522 30.6795 7.46979C30.3534 7.12891 30.2941 6.72874 30.4423 6.61017C30.5905 6.49161 30.7684 6.46937 30.9981 6.72133C32.1691 8.05948 33.6016 9.14389 35.2073 9.90784C35.9039 10.271 36.2077 10.3747 36.1558 10.5377H36.1855ZM35.5704 9.27054C35.6667 9.32242 35.9705 9.51509 35.8816 9.68553C35.7927 9.85597 35.5333 9.75963 35.2962 9.64848C33.7224 8.89345 32.3162 7.83001 31.1611 6.52125C31.1103 6.48223 31.0679 6.43332 31.0364 6.37745C31.005 6.32158 30.9853 6.25993 30.9783 6.19621C30.9714 6.13249 30.9775 6.06803 30.9961 6.00671C31.0148 5.9454 31.0457 5.88851 31.087 5.83948C31.2723 5.69127 31.5168 5.78761 31.7243 6.00992C31.9318 6.23224 32.1467 6.43973 32.4061 6.67687C33.1471 7.41792 34.1402 8.15897 34.8145 8.70734C35.0563 8.90831 35.3086 9.0963 35.5704 9.27054V9.27054ZM35.8075 8.18861C35.4522 8.14997 35.1035 8.06528 34.77 7.93665L34.2587 7.03257C34.6978 7.22956 35.1481 7.40031 35.6074 7.5439C35.8223 7.61059 36.2818 7.7588 36.4596 7.79585C36.9784 7.89219 36.4596 8.29236 35.8149 8.18861H35.8075ZM37.2081 7.09927C37.3193 7.09927 37.3934 7.16596 37.386 7.23266C37.3785 7.29935 37.1044 7.44756 36.8672 7.46238C35.8701 7.35552 34.9021 7.06136 34.0142 6.59535L33.3472 5.4986C34.5507 6.21997 35.8542 6.75936 37.2155 7.09927H37.2081ZM32.9915 5.61717C33.3991 6.25447 33.8808 7.09927 34.4736 8.07745C33.8734 7.59577 33.1768 7.00293 32.6062 6.47678C32.0356 5.95064 31.7762 5.37262 32.1319 5.15031C32.4876 4.92799 32.7544 5.26887 32.9989 5.59494L32.9915 5.61717ZM28.1006 3.41625C27.5967 4.1573 27.4929 5.59494 27.7227 7.0548C27.4804 5.84572 27.0423 4.68429 26.4258 3.61633C26.6649 3.44321 26.9442 3.33396 27.2372 3.29895C27.5303 3.26393 27.8275 3.30431 28.1006 3.41625V3.41625ZM26.0849 3.70526C26.8188 4.85206 27.2965 6.14371 27.4855 7.49202C27.5001 7.58202 27.5495 7.66269 27.6229 7.71673C27.6963 7.77076 27.788 7.79385 27.8783 7.78103C27.9643 7.76816 28.0418 7.72223 28.0944 7.65301C28.147 7.5838 28.1705 7.49679 28.1599 7.41051C27.6486 5.13549 28.0117 3.50518 29.1307 3.04573C29.8717 2.72708 30.7758 3.04573 31.7095 3.91275C32.0198 4.20756 32.3025 4.53001 32.5543 4.87612C32.4423 4.8271 32.3182 4.813 32.198 4.83565C32.0779 4.85831 31.9674 4.91666 31.881 5.0031C31.7945 5.08954 31.7362 5.20005 31.7135 5.32017C31.6909 5.4403 31.705 5.56447 31.754 5.67645C31.6358 5.57073 31.4828 5.51228 31.3242 5.51228C31.1656 5.51228 31.0126 5.57073 30.8944 5.67645C30.8117 5.75619 30.7528 5.85723 30.724 5.9684C30.6952 6.07957 30.6978 6.19653 30.7313 6.30634C30.6436 6.28268 30.5512 6.28183 30.463 6.30387C30.3748 6.32592 30.2937 6.37014 30.2274 6.43232C30.1519 6.51941 30.1005 6.62476 30.0784 6.73788C30.0563 6.851 30.0643 6.96793 30.1014 7.07704C30.024 7.05615 29.943 7.05248 29.864 7.0663C29.7851 7.08011 29.7101 7.11107 29.6444 7.157C29.5787 7.20292 29.5239 7.26269 29.4838 7.3321C29.4436 7.4015 29.4192 7.47886 29.4123 7.55872C29.3818 7.85211 29.4639 8.14613 29.642 8.38128C30.0125 8.8185 32.5543 11.264 34.3328 11.5456C34.2692 11.706 34.1678 11.8488 34.0372 11.9618C33.9067 12.0747 33.7509 12.1546 33.5829 12.1946C33.415 12.2346 33.2399 12.2335 33.0724 12.1915C32.905 12.1495 32.7502 12.0677 32.621 11.9531L32.3765 11.6641L32.4357 12.0643C32.4726 12.2201 32.4758 12.382 32.4451 12.5392C32.4145 12.6964 32.3506 12.8452 32.2579 12.9758C32.1124 13.0929 31.9451 13.18 31.7658 13.2321C31.5865 13.2843 31.3986 13.3004 31.213 13.2796C30.8522 13.3343 30.4845 13.2437 30.1904 13.0277C29.931 12.7831 29.9458 12.3829 29.968 11.8346C29.968 11.7086 29.968 11.5752 29.968 11.4344C30.0046 11.1726 29.9873 10.9062 29.9172 10.6513C29.8471 10.3965 29.7257 10.1586 29.5605 9.95231C29.3307 9.76705 29.2789 9.88561 29.4048 10.0709C29.7087 10.5155 29.5827 11.553 29.6049 12.2496C28.9346 12.2674 28.2731 12.0926 27.6991 11.7458C27.1251 11.3991 26.6626 10.8949 26.3665 10.2932C26.6804 10.3944 26.9995 10.4785 27.3225 10.5451C27.8042 10.6193 28.3155 10.1524 28.1747 9.8041C28.1545 9.76919 28.1225 9.74258 28.0845 9.72901C28.0465 9.71544 28.005 9.71579 27.9672 9.72999C27.7449 9.55955 26.6926 8.75922 26.2183 8.35905C26.0474 8.21319 25.861 8.08646 25.6625 7.98112C25.4847 6.32858 24.9882 5.12066 24.3138 4.68345C24.1899 4.59438 24.0465 4.53604 23.8956 4.51324C23.7446 4.49045 23.5904 4.50385 23.4457 4.55234C23.301 4.60083 23.1698 4.68302 23.0631 4.79213C22.9563 4.90125 22.877 5.03418 22.8317 5.17995C22.7656 5.43943 22.7663 5.71143 22.8337 5.97059C22.901 6.22975 23.0329 6.46763 23.2171 6.66205C23.306 6.75097 23.4765 6.80285 23.5283 6.94365C23.4107 7.01753 23.3129 7.11904 23.2435 7.23935C23.1741 7.35966 23.1351 7.49511 23.13 7.63392C23.1249 7.77273 23.1538 7.91069 23.2142 8.03578C23.2745 8.16087 23.3646 8.2693 23.4765 8.35164C23.2293 8.49957 23.0508 8.73937 22.9799 9.01858C22.8875 9.06322 22.7862 9.0864 22.6835 9.0864C22.5809 9.0864 22.4796 9.06322 22.3871 9.01858C21.6121 8.61168 20.9847 7.97134 20.5938 7.18819C19.3785 3.36438 23.7136 0.689189 26.0849 3.70526Z" fill="black"/>
<path d="M28.0784 14.1763C28.1942 14.1643 28.3055 14.1251 28.4034 14.062C28.5012 13.9989 28.5828 13.9137 28.6416 13.8132C28.7009 13.7094 28.6416 13.702 28.6416 13.702C28.5758 13.6892 28.5082 13.6896 28.4426 13.7032C28.377 13.7168 28.3148 13.7434 28.2596 13.7814C28.2044 13.8193 28.1573 13.8679 28.1211 13.9242C28.0849 13.9806 28.0603 14.0436 28.0487 14.1096C28.0142 14.1541 28.024 14.1763 28.0784 14.1763Z" fill="black"/>
<path d="M28.7675 15.273C28.8828 15.2564 28.9925 15.2128 29.0878 15.1459C29.183 15.0789 29.2612 14.9905 29.3159 14.8877C29.3678 14.7765 29.2714 14.7765 29.2714 14.7765C29.205 14.7661 29.1372 14.7693 29.0721 14.7858C29.0069 14.8024 28.9458 14.832 28.8925 14.8729C28.8391 14.9138 28.7946 14.9651 28.7617 15.0237C28.7288 15.0822 28.708 15.1469 28.7008 15.2137C28.7008 15.2137 28.7157 15.2804 28.7675 15.273Z" fill="black"/>
<path d="M36.9932 47.5754C37.0651 47.3062 37.0485 47.0211 36.9457 46.7622C36.8429 46.5033 36.6595 46.2843 36.4226 46.1377H36.3781V44.211C36.3882 44.0818 36.3664 43.9521 36.3148 43.8332C36.2631 43.7144 36.1831 43.61 36.0817 43.5292C35.4135 43.0445 34.5913 42.8205 33.7696 42.8994H23.0392V46.2267C22.6168 46.3823 22.3501 46.5453 22.3501 47.3827C22.3151 47.6235 22.359 47.8691 22.4752 48.0828C22.5914 48.2965 22.7737 48.4669 22.9948 48.5684H23.0392V52.8887C22.6168 53.0443 22.3501 53.2073 22.3501 54.0447C22.3151 54.2855 22.359 54.5311 22.4752 54.7448C22.5914 54.9586 22.7737 55.1289 22.9948 55.2304H23.0392V58.5429L24.7437 59.7064H34.9183V59.4544C35.9928 59.3951 36.4004 58.8764 36.4004 58.3947V57.0608C36.5545 56.9952 36.6907 56.8937 36.7976 56.7648C36.9046 56.6359 36.9793 56.4833 37.0154 56.3198C37.0873 56.0506 37.0707 55.7655 36.9679 55.5066C36.8651 55.2476 36.6817 55.0287 36.4448 54.8821H36.4004V54.1411C36.5538 54.0744 36.6894 53.9726 36.7962 53.8439C36.9031 53.7152 36.9782 53.5631 37.0154 53.4C37.0868 53.132 37.0699 52.848 36.9671 52.5904C36.8643 52.3327 36.6811 52.1151 36.4448 51.9698H36.4004V51.2732C36.5538 51.2065 36.6894 51.1047 36.7962 50.976C36.9031 50.8473 36.9782 50.6952 37.0154 50.5322C37.0861 50.263 37.0689 49.9783 36.9662 49.7196C36.8636 49.461 36.6809 49.2419 36.4448 49.0945H36.4004V48.3535C36.5541 48.2804 36.6881 48.1717 36.7912 48.0364C36.8943 47.901 36.9636 47.7429 36.9932 47.5754V47.5754ZM23.3801 46.3304V43.218H33.7548C34.4936 43.1433 35.2348 43.3351 35.8446 43.759C35.9149 43.8119 35.968 43.8845 35.997 43.9676C36.026 44.0508 36.0297 44.1406 36.0076 44.2258C35.9187 44.463 35.5333 44.6112 34.9775 44.6112H24.7437V47.479L24.1953 47.1826V44.0183H34.7552C34.9331 44.0183 34.8886 43.8924 34.8442 43.8405C34.7872 43.7956 34.7217 43.7626 34.6517 43.7435C34.5816 43.7244 34.5085 43.7196 34.4366 43.7293H23.9063V47.0418C23.3801 46.7825 23.3801 46.7676 23.3801 46.5231V46.3304ZM36.0372 44.7075V46.5453C35.9185 46.6068 35.7854 46.6349 35.6519 46.6268H34.8293V44.9521H34.896C35.2917 44.977 35.6866 44.8924 36.0372 44.7075V44.7075ZM22.6984 47.3605C22.6984 46.7825 22.8095 46.6713 23.0466 46.575C23.0466 46.9974 23.1949 47.0715 23.847 47.3901L24.7881 47.894C24.8701 47.9392 24.9614 47.9646 25.0549 47.9681H26.3295C26.3258 47.9336 26.3258 47.8989 26.3295 47.8644C26.3381 47.7179 26.4007 47.5799 26.5052 47.477C26.6097 47.374 26.7487 47.3135 26.8952 47.307C27.0418 47.3006 27.1855 47.3487 27.2987 47.442C27.4118 47.5354 27.4863 47.6674 27.5078 47.8125V47.9681H27.6634C27.8187 47.9681 27.9676 48.0298 28.0773 48.1396C28.1871 48.2494 28.2488 48.3983 28.2488 48.5536C28.2488 48.7088 28.1871 48.8577 28.0773 48.9675C27.9676 49.0773 27.8187 49.139 27.6634 49.139H27.5078V49.2946C27.502 49.446 27.4378 49.5892 27.3286 49.6943C27.2195 49.7993 27.0738 49.8579 26.9223 49.8578C26.7651 49.8578 26.6143 49.7953 26.5031 49.6842C26.392 49.573 26.3295 49.4222 26.3295 49.265C26.3258 49.2379 26.3258 49.2105 26.3295 49.1835H25.129C25.0108 49.1811 24.8946 49.1533 24.7881 49.1019C24.6992 49.1019 23.4172 48.3609 23.1726 48.2349C22.9281 48.1089 22.6909 47.9533 22.6909 47.3605H22.6984ZM24.7511 49.465V54.1707L24.2027 53.8743V49.1835L24.7511 49.465ZM23.9137 49.0352V53.7335C23.3875 53.4741 23.3875 53.4593 23.3875 53.2074V53.0221V48.7611L23.9137 49.0352ZM23.9137 58.6689L23.3875 58.2984V55.475L23.9137 55.7566V58.6689ZM24.7511 59.2691L24.2027 58.8764V55.9122L24.7511 56.179V59.2691ZM23.18 54.9118C22.8466 54.7339 22.6984 54.6153 22.6984 54.0225C22.6984 53.4297 22.8095 53.3333 23.0466 53.2296C23.0466 53.6594 23.1949 53.7261 23.8396 54.0521L24.7511 54.5338C24.857 54.5887 24.973 54.6214 25.0919 54.6302H26.3295C26.3258 54.5957 26.3258 54.5609 26.3295 54.5264C26.3381 54.38 26.4007 54.2419 26.5052 54.139C26.6097 54.036 26.7487 53.9755 26.8952 53.969C27.0418 53.9626 27.1855 54.0107 27.2987 54.1041C27.4118 54.1974 27.4863 54.3294 27.5078 54.4745V54.6302H27.6634C27.8167 54.6359 27.9619 54.7009 28.0683 54.8115C28.1747 54.922 28.2341 55.0695 28.234 55.223C28.234 55.3757 28.1744 55.5224 28.0678 55.6318C27.9612 55.7412 27.8161 55.8046 27.6634 55.8084H27.5078V55.9641C27.502 56.1154 27.4378 56.2587 27.3286 56.3637C27.2195 56.4687 27.0738 56.5274 26.9223 56.5272C26.7651 56.5272 26.6143 56.4648 26.5031 56.3536C26.392 56.2424 26.3295 56.0916 26.3295 55.9344C26.3258 55.9074 26.3258 55.8799 26.3295 55.8529H24.9511C24.7511 55.7936 23.3505 55.0377 23.1726 54.9414L23.18 54.9118ZM36.0447 58.3502C36.0447 58.7652 35.6 59.032 34.8664 59.0913V57.1868H35.7927C35.874 57.1941 35.9559 57.1941 36.0372 57.1868L36.0447 58.3502ZM35.7927 48.1015H34.5181V49.8874H35.6519C35.8082 49.9066 35.9667 49.8804 36.1086 49.8121C36.2504 49.7438 36.3697 49.6362 36.4522 49.5021C36.5524 49.6247 36.6231 49.7685 36.6591 49.9227C36.695 50.0768 36.6953 50.2371 36.6597 50.3914C36.617 50.5825 36.5044 50.7508 36.344 50.8632C36.1836 50.9756 35.987 51.0241 35.7927 50.999H34.5181V52.785H35.6519C35.8075 52.8057 35.9659 52.7811 36.1078 52.7141C36.2498 52.647 36.3694 52.5404 36.4522 52.407C36.5627 52.5355 36.6395 52.6895 36.6757 52.8551C36.712 53.0207 36.7065 53.1926 36.6597 53.3556C36.6186 53.5481 36.5066 53.7181 36.3461 53.832C36.1855 53.9459 35.988 53.9954 35.7927 53.9706H34.5181V55.7566H35.6519C35.8082 55.7757 35.9667 55.7495 36.1086 55.6812C36.2504 55.6129 36.3697 55.5053 36.4522 55.3712C36.5546 55.4955 36.6266 55.6419 36.6626 55.7988C36.6987 55.9557 36.6977 56.1188 36.6597 56.2753C36.617 56.4664 36.5044 56.6347 36.344 56.7471C36.1836 56.8596 35.987 56.908 35.7927 56.883H34.5181V59.3803H25.0845V56.2679H26.0108C26.0695 56.4668 26.1928 56.6406 26.3612 56.7617C26.5296 56.8828 26.7335 56.9444 26.9408 56.9368C27.1481 56.9291 27.347 56.8527 27.506 56.7195C27.665 56.5863 27.7751 56.4039 27.819 56.2012C28.0302 56.1585 28.2202 56.044 28.3566 55.8772C28.4931 55.7104 28.5677 55.5015 28.5677 55.286C28.5677 55.0705 28.4931 54.8616 28.3566 54.6948C28.2202 54.528 28.0302 54.4135 27.819 54.3708C27.7739 54.1634 27.6601 53.9774 27.496 53.8429C27.3319 53.7084 27.1271 53.6333 26.9149 53.6297C26.7084 53.6295 26.5077 53.6978 26.3441 53.8238C26.1805 53.9499 26.0633 54.1266 26.0108 54.3263H25.0845V49.5392H26.0108C26.0688 49.7382 26.1914 49.9123 26.3593 50.0341C26.5271 50.1558 26.7307 50.2181 26.9379 50.2113C27.1452 50.2046 27.3442 50.129 27.5038 49.9965C27.6633 49.8641 27.7742 49.6823 27.819 49.4799C28.0344 49.441 28.2294 49.3277 28.3697 49.1598C28.5101 48.9918 28.587 48.7799 28.587 48.561C28.587 48.3421 28.5101 48.1301 28.3697 47.9622C28.2294 47.7942 28.0344 47.6809 27.819 47.6421C27.7739 47.4347 27.6601 47.2487 27.496 47.1142C27.3319 46.9796 27.1271 46.9045 26.9149 46.901C26.7084 46.9008 26.5077 46.9691 26.3441 47.0951C26.1805 47.2211 26.0633 47.3979 26.0108 47.5976H25.0845V44.9521H34.5181V46.9677H35.6519C35.8075 46.9885 35.9659 46.9639 36.1078 46.8968C36.2498 46.8298 36.3694 46.7232 36.4522 46.5898C36.5546 46.714 36.6266 46.8604 36.6626 47.0173C36.6987 47.1743 36.6977 47.3374 36.6597 47.4939C36.6155 47.6842 36.5025 47.8515 36.3425 47.9636C36.1825 48.0757 35.9867 48.1249 35.7927 48.1015V48.1015ZM36.0372 48.4276V49.465C35.9185 49.5265 35.7854 49.5547 35.6519 49.5466H34.8293V48.4424H35.7927L36.0372 48.4276ZM36.0372 51.3399V52.3774C35.9185 52.4388 35.7854 52.467 35.6519 52.4589H34.8293V51.3621H35.7927C35.8747 51.3621 35.9566 51.3547 36.0372 51.3399V51.3399ZM36.0372 54.2596V55.2897C35.9193 55.3534 35.7855 55.3817 35.6519 55.3712H34.8293V54.2745H35.7927L36.0372 54.2596Z" fill="black"/>
<path d="M26.9001 48.9093C26.9763 48.9093 27.0508 48.8867 27.1142 48.8443C27.1776 48.802 27.2269 48.7418 27.2561 48.6714C27.2853 48.601 27.2929 48.5235 27.278 48.4488C27.2632 48.374 27.2265 48.3053 27.1726 48.2514C27.1187 48.1976 27.05 48.1609 26.9753 48.146C26.9005 48.1311 26.823 48.1387 26.7526 48.1679C26.6822 48.1971 26.622 48.2465 26.5797 48.3098C26.5374 48.3732 26.5148 48.4477 26.5148 48.5239C26.5137 48.5748 26.523 48.6254 26.542 48.6726C26.561 48.7198 26.5894 48.7627 26.6254 48.7986C26.6614 48.8346 26.7042 48.863 26.7515 48.882C26.7987 48.901 26.8492 48.9103 26.9001 48.9093V48.9093Z" fill="black"/>
<path d="M26.9001 55.5787C26.9763 55.5787 27.0508 55.5561 27.1142 55.5138C27.1776 55.4714 27.2269 55.4112 27.2561 55.3408C27.2853 55.2704 27.2929 55.1929 27.278 55.1182C27.2632 55.0434 27.2265 54.9748 27.1726 54.9209C27.1187 54.867 27.05 54.8303 26.9753 54.8154C26.9005 54.8006 26.823 54.8082 26.7526 54.8373C26.6822 54.8665 26.622 54.9159 26.5797 54.9793C26.5374 55.0426 26.5148 55.1171 26.5148 55.1934C26.5137 55.2442 26.523 55.2948 26.542 55.342C26.561 55.3892 26.5894 55.4321 26.6254 55.4681C26.6614 55.5041 26.7042 55.5324 26.7515 55.5514C26.7987 55.5704 26.8492 55.5797 26.9001 55.5787V55.5787Z" fill="black"/>
<path d="M20.4307 33.2212L19.6082 32.4061C19.176 31.8941 18.9166 31.2587 18.8671 30.5905V30.4275C18.7995 30.1207 18.641 29.8413 18.4124 29.6258C18.1837 29.4104 17.8954 29.2688 17.5851 29.2196C17.2539 29.1861 16.9208 29.2612 16.636 29.4337C16.3513 29.6061 16.1304 29.8665 16.0067 30.1755L15.94 30.3089L16.0067 30.4423C16.7103 31.726 17.495 32.9635 18.3558 34.1476C18.9931 35.0368 18.7411 36.2818 17.7111 37.3563C16.229 38.9273 15.1026 40.0611 14.154 41.0616C13.4561 41.7655 12.8979 42.5953 12.5089 43.507C12.06 43.4002 11.5885 43.4427 11.166 43.6283C10.7435 43.8138 10.393 44.1322 10.168 44.535C9.94287 44.9379 9.85541 45.4031 9.91886 45.8602C9.9823 46.3173 10.1932 46.7412 10.5195 47.0675C10.8458 47.3938 11.2697 47.6046 11.7267 47.6681C12.1838 47.7315 12.6491 47.6441 13.0519 47.419C13.4548 47.1939 13.7731 46.8435 13.9587 46.421C14.1442 45.9985 14.1868 45.527 14.0799 45.078C14.9964 44.6938 15.8295 44.135 16.5328 43.4329C17.5036 42.4844 18.6374 41.3876 20.238 39.8759C21.3126 38.8458 22.5575 38.6013 23.4468 39.2386C24.6306 40.0974 25.8683 40.8796 27.152 41.5803L27.278 41.6544L27.4114 41.5877C27.7137 41.4602 27.9665 41.2382 28.1322 40.955C28.2978 40.6718 28.3673 40.3426 28.3303 40.0167C28.2835 39.7066 28.1437 39.418 27.9294 39.189C27.715 38.9601 27.4362 38.8017 27.1298 38.7347H26.9594C26.2931 38.6866 25.6596 38.427 25.1512 37.9936L24.3286 37.1784L29.642 31.4798L34.9479 37.1266L34.1327 37.9417C33.6207 38.3739 32.9853 38.6333 32.3172 38.6828H32.1541C31.8394 38.7526 31.5542 38.9185 31.3378 39.1574C31.1214 39.3964 30.9846 39.6966 30.9462 40.0167C30.9145 40.3486 30.9912 40.6818 31.1649 40.9664C31.3386 41.251 31.5999 41.4716 31.9096 41.5951L32.0356 41.6618L32.1689 41.5877C33.4522 40.8862 34.6898 40.104 35.8742 39.246C36.7635 38.6087 38.0158 38.8532 39.0903 39.8833C40.6614 41.3654 41.7952 42.4918 42.7956 43.4403C43.4872 44.1341 44.3046 44.6898 45.204 45.078C45.1086 45.5237 45.1598 45.9882 45.3502 46.4023C45.5405 46.8164 45.8597 47.1578 46.26 47.3756C46.6603 47.5934 47.1204 47.6758 47.5714 47.6106C48.0225 47.5453 48.4403 47.336 48.7626 47.0137C49.0848 46.6915 49.2942 46.2736 49.3594 45.8226C49.4246 45.3715 49.3422 44.9115 49.1245 44.5111C48.9067 44.1108 48.5653 43.7916 48.1512 43.6013C47.7371 43.411 47.2725 43.3597 46.8269 43.4551C46.4433 42.5405 45.8844 41.7097 45.1818 41.0097L41.6321 37.3044C40.5947 36.2299 40.3501 34.9849 40.9874 34.0957C41.8451 32.9095 42.6296 31.6722 43.3366 30.3904L43.4033 30.257L43.3366 30.1237C43.2128 29.8146 42.9919 29.5542 42.7072 29.3818C42.4224 29.2093 42.0893 29.1342 41.7581 29.1677C41.4474 29.216 41.1586 29.3572 40.9298 29.5728C40.7009 29.7884 40.5428 30.0683 40.4761 30.3756V30.5386C40.4198 31.2052 40.1613 31.8387 39.7351 32.3542L38.9125 33.1694L33.1545 27.7523L52.118 7.59575L55.3638 2.29725L55.223 2.22314L49.9023 5.48376L29.642 24.5584L9.39649 5.5134L4.05353 2.22314L3.9646 2.31207L7.2104 7.61057L26.1664 27.7671L20.4307 33.2212ZM26.5666 28.2192L27.7597 29.4789L22.2315 35.0146L20.8235 33.6214L26.5666 28.2192ZM13.1314 46.612C12.915 46.8292 12.6391 46.9773 12.3385 47.0376C12.0379 47.0978 11.7261 47.0675 11.4428 46.9504C11.1594 46.8334 10.9172 46.6349 10.7467 46.38C10.5763 46.1252 10.4853 45.8255 10.4853 45.519C10.4853 45.2124 10.5763 44.9127 10.7467 44.6579C10.9172 44.4031 11.1594 44.2045 11.4428 44.0875C11.7261 43.9704 12.0379 43.9401 12.3385 44.0004C12.6391 44.0606 12.915 44.2087 13.1314 44.4259C13.4205 44.7162 13.5829 45.1092 13.5829 45.519C13.5829 45.9287 13.4205 46.3217 13.1314 46.612ZM19.8008 39.4757C18.2298 40.9578 17.096 42.0842 16.0956 43.0327C15.4534 43.6743 14.7001 44.194 13.8724 44.5667C13.7718 44.3681 13.6419 44.1858 13.4871 44.0257C13.3287 43.869 13.146 43.7389 12.9461 43.6404C13.3116 42.8086 13.8322 42.0541 14.4801 41.4173L18.0371 37.712C18.7347 37.0888 19.1736 36.2269 19.2673 35.2962C19.7564 35.889 20.2232 36.4152 20.6975 36.8894C21.1845 37.3917 21.6964 37.869 22.2315 38.3197C21.3171 38.4 20.4635 38.8111 19.8305 39.4757H19.8008ZM24.7214 38.3419C25.3139 38.8745 26.0623 39.2019 26.8556 39.2756H27.0186C27.2078 39.3227 27.379 39.4243 27.5107 39.568C27.6425 39.7116 27.7291 39.8909 27.7597 40.0834C27.7774 40.274 27.7365 40.4656 27.6425 40.6324C27.5485 40.7993 27.4058 40.9335 27.2336 41.0171C25.9904 40.3228 24.7925 39.5505 23.6469 38.705C22.7289 38.0258 21.8597 37.2829 21.0458 36.4819V36.4819C20.2431 35.6669 19.5001 34.7951 18.8226 33.8734C17.9792 32.7304 17.2094 31.5349 16.518 30.2941C16.6 30.1217 16.7326 29.9783 16.898 29.883C17.0635 29.7877 17.254 29.745 17.4443 29.7605C17.6368 29.7912 17.816 29.8777 17.9597 30.0095C18.1033 30.1413 18.205 30.3124 18.252 30.5016L18.2891 30.6646C18.3523 31.4461 18.6699 32.1854 19.1932 32.7692L24.7214 38.3419ZM23.9062 36.7264L22.5057 35.3332L28.0339 29.805L29.227 31.0722L23.9062 36.7264ZM48.3386 44.463C48.5506 44.6814 48.6934 44.9574 48.7494 45.2565C48.8054 45.5557 48.772 45.8647 48.6535 46.145C48.5349 46.4252 48.3363 46.6644 48.0827 46.8325C47.829 47.0006 47.5314 47.0903 47.2271 47.0903C46.9227 47.0903 46.6252 47.0006 46.3715 46.8325C46.1178 46.6644 45.9193 46.4252 45.8007 46.145C45.6821 45.8647 45.6487 45.5557 45.7047 45.2565C45.7607 44.9574 45.9036 44.6814 46.1155 44.463C46.2593 44.3132 46.4319 44.1941 46.6229 44.1127C46.814 44.0314 47.0194 43.9894 47.2271 43.9894C47.4347 43.9894 47.6402 44.0314 47.8312 44.1127C48.0222 44.1941 48.1948 44.3132 48.3386 44.463V44.463ZM41.2023 37.7194C42.6844 39.2979 43.8108 40.4317 44.7594 41.4247C45.4048 42.0636 45.9251 42.8176 46.2933 43.6478C45.8894 43.8439 45.5631 44.1702 45.367 44.5741C44.5383 44.2033 43.7847 43.6834 43.1439 43.0402C42.1731 42.0916 41.0393 40.9949 39.4386 39.4831C38.8113 38.8179 37.9629 38.4042 37.0525 38.3197C37.6078 37.8707 38.1396 37.3933 38.6457 36.8894C39.12 36.4152 39.5943 35.889 40.0834 35.2962C40.1424 36.2149 40.5413 37.0787 41.2023 37.7194V37.7194ZM40.0685 32.7988C40.5846 32.2104 40.9011 31.4737 40.9726 30.6943V30.5312C41.0214 30.3429 41.1236 30.1728 41.2669 30.0413C41.4103 29.9098 41.5886 29.8226 41.7804 29.7902C41.9717 29.7742 42.1634 29.8166 42.3301 29.9119C42.4969 30.0071 42.6307 30.1507 42.7141 30.3237C42.0197 31.5628 41.2501 32.7582 40.4094 33.903C39.732 34.8248 38.989 35.6965 38.1863 36.5115V36.5115C37.3713 37.3143 36.4995 38.0572 35.5778 38.7347C34.4355 39.5813 33.2399 40.3536 31.9985 41.0467C31.8255 40.9634 31.6819 40.8295 31.5866 40.6628C31.4913 40.4961 31.4489 40.3044 31.4649 40.113C31.4973 39.9212 31.5846 39.7429 31.716 39.5996C31.8475 39.4562 32.0177 39.354 32.206 39.3053H32.3764C33.1532 39.2322 33.8872 38.9158 34.4736 38.4012L40.0685 32.7988ZM50.2505 5.92839L54.1337 3.42364L51.6141 7.29192L32.6877 27.4188L31.5316 26.3369L50.9397 6.92881L51.5029 6.05437L50.6211 6.61757L31.2056 26.0331L30.0495 24.9437L50.2505 5.92839ZM7.66985 7.30674L5.06135 3.36436L9.03338 5.92839L38.453 33.6066L37.0525 35.0146L8.66285 6.61757L7.781 6.05437L8.3442 6.92881L36.7412 35.3332L35.348 36.7264L7.66985 7.30674Z" fill="black"/>
<path d="M21.9054 7.83289C22.0739 7.98218 22.2741 8.09116 22.4909 8.15155C22.5946 8.15155 22.6687 8.15155 22.6613 8.00334C22.6716 7.8686 22.6539 7.73319 22.6092 7.60565C22.5646 7.4781 22.494 7.36119 22.4019 7.26229C22.1648 7.03256 21.9721 7.03997 21.6609 6.91399C21.5201 6.85471 21.483 6.91399 21.5127 7.01774C21.5901 7.31215 21.7234 7.5889 21.9054 7.83289V7.83289ZM21.8462 7.24747C21.9281 7.32108 22.0049 7.40031 22.0759 7.4846C22.1426 7.56612 22.0018 7.70692 21.9573 7.64022C21.9128 7.57353 21.8017 7.33639 21.7795 7.28452C21.7572 7.23264 21.7943 7.18818 21.8462 7.24747V7.24747Z" fill="black"/>
</g>
<defs>
<clipPath id="clip0_801_115">
<rect width="320" height="66.1016" fill="white"/>
</clipPath>
</defs>
</svg>
