<?xml version="1.0" encoding="UTF-8"?>
<svg width="443px" height="227px" viewBox="0 0 443 227" version="1.1" xmlns="http://www.w3.org/2000/svg" xmlns:xlink="http://www.w3.org/1999/xlink">
    <title>Group 8</title>
    <defs>
        <rect id="path-1" x="0" y="0" width="32" height="32"></rect>
        <rect id="path-3" x="0" y="0" width="32" height="32"></rect>
        <rect id="path-5" x="0" y="0" width="32" height="32"></rect>
        <rect id="path-7" x="0" y="0" width="32" height="32"></rect>
        <rect id="path-9" x="0" y="0" width="32" height="32"></rect>
    </defs>
    <g id="Style-Guide" stroke="none" stroke-width="1" fill="none" fill-rule="evenodd">
        <g id="Group-8">
            <g id="button_menu" transform="translate(376.000000, 0.000000)">
                <text id="MENU" font-family="ProximaNova-Semibold, Proxima Nova" font-size="14" font-weight="500" letter-spacing="1" fill="#FFFFFF">
                    <tspan x="0.043" y="49">MENU</tspan>
                </text>
                <g id="icon_close_red" transform="translate(6.000000, 0.000000)">
                    <mask id="mask-2" fill="white">
                        <use xlink:href="#path-1"></use>
                    </mask>
                    <g id="viewbox"></g>
                    <g id="icon_x" mask="url(#mask-2)" fill="#C72035" fill-rule="nonzero">
                        <g transform="translate(15.500000, 16.000000) rotate(-315.000000) translate(-15.500000, -16.000000) translate(1.000000, 1.000000)" id="Path">
                            <path d="M28.0285714,16.7262411 C28.4545898,16.7262411 28.8,16.4518728 28.8,16.1134752 L28.8,14.4794326 C28.8,14.141035 28.4545898,13.8666667 28.0285714,13.8666667 L0.771428571,13.8666667 C0.345410156,13.8666667 0,14.141035 0,14.4794326 L0,16.1134752 C0,16.4518728 0.345410156,16.7262411 0.771428571,16.7262411 L28.0285714,16.7262411 Z"></path>
                            <path d="M28.0285714,16.7262411 C28.4545898,16.7262411 28.8,16.4518728 28.8,16.1134752 L28.8,14.4794326 C28.8,14.141035 28.4545898,13.8666667 28.0285714,13.8666667 L0.771428571,13.8666667 C0.345410156,13.8666667 0,14.141035 0,14.4794326 L0,16.1134752 C0,16.4518728 0.345410156,16.7262411 0.771428571,16.7262411 L28.0285714,16.7262411 Z" transform="translate(14.400000, 15.296454) rotate(-270.000000) translate(-14.400000, -15.296454) "></path>
                        </g>
                    </g>
                </g>
            </g>
            <g id="button_menu" transform="translate(282.000000, 0.000000)">
                <text id="MENU" font-family="ProximaNova-Semibold, Proxima Nova" font-size="14" font-weight="500" letter-spacing="1" fill="#FFFFFF">
                    <tspan x="0.043" y="49">MENU</tspan>
                </text>
                <g id="icon_close_red" transform="translate(6.000000, 0.000000)">
                    <mask id="mask-4" fill="white">
                        <use xlink:href="#path-3"></use>
                    </mask>
                    <g id="viewbox"></g>
                    <g id="icon_x" mask="url(#mask-4)" fill="#FFFFFF" fill-rule="nonzero">
                        <g transform="translate(15.219665, 16.138914) rotate(-315.000000) translate(-15.219665, -16.138914) translate(0.819665, 1.738914)" id="Path">
                            <path d="M28.0285714,15.8297872 C28.4545898,15.8297872 28.8,15.5554189 28.8,15.2170213 L28.8,13.5829787 C28.8,13.2445811 28.4545898,12.9702128 28.0285714,12.9702128 L0.771428571,12.9702128 C0.345410156,12.9702128 -1.1902777e-13,13.2445811 -1.1902777e-13,13.5829787 L-1.1902777e-13,15.2170213 C-1.1902777e-13,15.5554189 0.345410156,15.8297872 0.771428571,15.8297872 L28.0285714,15.8297872 Z"></path>
                            <path d="M28.0285714,15.8297872 C28.4545898,15.8297872 28.8,15.5554189 28.8,15.2170213 L28.8,13.5829787 C28.8,13.2445811 28.4545898,12.9702128 28.0285714,12.9702128 L0.771428571,12.9702128 C0.345410156,12.9702128 -2.79805238e-13,13.2445811 -2.79805238e-13,13.5829787 L-2.79805238e-13,15.2170213 C-2.79805238e-13,15.5554189 0.345410156,15.8297872 0.771428571,15.8297872 L28.0285714,15.8297872 Z" transform="translate(14.400000, 14.400000) rotate(-270.000000) translate(-14.400000, -14.400000) "></path>
                        </g>
                    </g>
                </g>
            </g>
            <g id="button_menu" transform="translate(0.000000, 1.000000)">
                <g id="icon_menu" transform="translate(7.000000, 0.500000)">
                    <rect id="viewbox" x="0" y="0" width="30" height="30"></rect>
                    <g id="button_menu" transform="translate(0.937500, 5.625000)" fill="#000000" fill-rule="nonzero">
                        <path d="M26.2767857,2.68085106 C26.676178,2.68085106 27,2.42363073 27,2.10638298 L27,0.574468085 C27,0.257220329 26.676178,0 26.2767857,0 L0.723214286,0 C0.323822021,0 0,0.257220329 0,0.574468085 L0,2.10638298 C0,2.42363073 0.323822021,2.68085106 0.723214286,2.68085106 L26.2767857,2.68085106 Z M15.5714286,10.3404255 C15.8081055,10.3404255 16,10.0832052 16,9.76595745 L16,8.23404255 C16,7.9167948 15.8081055,7.65957447 15.5714286,7.65957447 L0.428571429,7.65957447 C0.191894531,7.65957447 0,7.9167948 0,8.23404255 L0,9.76595745 C0,10.0832052 0.191894531,10.3404255 0.428571429,10.3404255 L15.5714286,10.3404255 Z M22.3839286,18 C22.7241516,18 23,17.7427797 23,17.4255319 L23,15.893617 C23,15.5763693 22.7241516,15.3191489 22.3839286,15.3191489 L0.616071429,15.3191489 C0.275848389,15.3191489 0,15.5763693 0,15.893617 L0,17.4255319 C0,17.7427797 0.275848389,18 0.616071429,18 L22.3839286,18 Z" id="b"></path>
                    </g>
                </g>
                <text id="MENU" font-family="ProximaNova-Semibold, Proxima Nova" font-size="14" font-weight="500" line-spacing="16" letter-spacing="1" fill="#030303">
                    <tspan x="0" y="49">MENU</tspan>
                </text>
            </g>
            <g id="button_menu" transform="translate(94.000000, 1.500000)">
                <g id="icon_menu" transform="translate(7.000000, 0.000000)">
                    <rect id="viewbox" x="0" y="0" width="30" height="30"></rect>
                    <g id="button_menu" transform="translate(0.937500, 5.625000)" fill="#FFFFFF" fill-rule="nonzero">
                        <path d="M26.2767857,2.68085106 C26.676178,2.68085106 27,2.42363073 27,2.10638298 L27,0.574468085 C27,0.257220329 26.676178,0 26.2767857,0 L0.723214286,0 C0.323822021,0 0,0.257220329 0,0.574468085 L0,2.10638298 C0,2.42363073 0.323822021,2.68085106 0.723214286,2.68085106 L26.2767857,2.68085106 Z M15.5714286,10.3404255 C15.8081055,10.3404255 16,10.0832052 16,9.76595745 L16,8.23404255 C16,7.9167948 15.8081055,7.65957447 15.5714286,7.65957447 L0.428571429,7.65957447 C0.191894531,7.65957447 0,7.9167948 0,8.23404255 L0,9.76595745 C0,10.0832052 0.191894531,10.3404255 0.428571429,10.3404255 L15.5714286,10.3404255 Z M22.3839286,18 C22.7241516,18 23,17.7427797 23,17.4255319 L23,15.893617 C23,15.5763693 22.7241516,15.3191489 22.3839286,15.3191489 L0.616071429,15.3191489 C0.275848389,15.3191489 0,15.5763693 0,15.893617 L0,17.4255319 C0,17.7427797 0.275848389,18 0.616071429,18 L22.3839286,18 Z" id="b"></path>
                    </g>
                </g>
                <text id="MENU" font-family="ProximaNova-Semibold, Proxima Nova" font-size="14" font-weight="500" line-spacing="16" letter-spacing="1" fill="#FFFFFF">
                    <tspan x="0" y="48.5">MENU</tspan>
                </text>
            </g>
            <g id="button_menu" transform="translate(188.000000, 1.500000)">
                <g id="icon_menu" transform="translate(7.000000, 0.000000)">
                    <rect id="viewbox" x="0" y="0" width="30" height="30"></rect>
                    <g id="button_menu" transform="translate(0.937500, 5.625000)" fill="#C72035" fill-rule="nonzero">
                        <path d="M26.2767857,2.68085106 C26.676178,2.68085106 27,2.42363073 27,2.10638298 L27,0.574468085 C27,0.257220329 26.676178,0 26.2767857,0 L0.723214286,0 C0.323822021,0 0,0.257220329 0,0.574468085 L0,2.10638298 C0,2.42363073 0.323822021,2.68085106 0.723214286,2.68085106 L26.2767857,2.68085106 Z M15.5714286,10.3404255 C15.8081055,10.3404255 16,10.0832052 16,9.76595745 L16,8.23404255 C16,7.9167948 15.8081055,7.65957447 15.5714286,7.65957447 L0.428571429,7.65957447 C0.191894531,7.65957447 0,7.9167948 0,8.23404255 L0,9.76595745 C0,10.0832052 0.191894531,10.3404255 0.428571429,10.3404255 L15.5714286,10.3404255 Z M22.3839286,18 C22.7241516,18 23,17.7427797 23,17.4255319 L23,15.893617 C23,15.5763693 22.7241516,15.3191489 22.3839286,15.3191489 L0.616071429,15.3191489 C0.275848389,15.3191489 0,15.5763693 0,15.893617 L0,17.4255319 C0,17.7427797 0.275848389,18 0.616071429,18 L22.3839286,18 Z" id="b"></path>
                    </g>
                </g>
                <text id="MENU" font-family="ProximaNova-Semibold, Proxima Nova" font-size="14" font-weight="500" line-spacing="16" letter-spacing="1" fill="#FFFFFF">
                    <tspan x="0" y="48.5">MENU</tspan>
                </text>
            </g>
            <g id="button_search" transform="translate(7.000000, 197.000000)">
                <rect id="viewbox" x="0" y="0" width="30" height="30"></rect>
                <path d="M28.4693278,29.7934586 L29.7934586,28.4693278 C30.0688471,28.1939392 30.0688471,27.7486143 29.7934586,27.4732829 L22.6805038,20.3603281 C22.5457562,20.2255806 22.3699836,20.1552601 22.1824814,20.1552601 L21.4091276,20.1552601 C23.2547401,18.0166932 24.3738029,15.2336268 24.3738029,12.1869014 C24.3738029,5.45478733 18.9190156,0 12.1869014,0 C5.45478733,0 0,5.45478733 0,12.1869014 C0,18.9190156 5.45478733,24.3738029 12.1869014,24.3738029 C15.2336268,24.3738029 18.0166932,23.2547401 20.1552601,21.4091276 L20.1552601,22.1824814 C20.1552601,22.3699836 20.2314168,22.5457562 20.3603281,22.6805038 L27.4732829,29.7934586 C27.7486143,30.0688471 28.1939392,30.0688471 28.4693278,29.7934586 Z M12.1869014,21.561441 C7.00744545,21.561441 2.81236187,17.3663575 2.81236187,12.1869014 C2.81236187,7.00744545 7.00744545,2.81236187 12.1869014,2.81236187 C17.3663575,2.81236187 21.561441,7.00744545 21.561441,12.1869014 C21.561441,17.3663575 17.3663575,21.561441 12.1869014,21.561441 Z" id="s" fill="#000000" fill-rule="nonzero"></path>
            </g>
            <g id="button_search" transform="translate(87.000000, 197.000000)">
                <rect id="viewbox" x="0" y="0" width="30" height="30"></rect>
                <path d="M28.4693278,29.7934586 L29.7934586,28.4693278 C30.0688471,28.1939392 30.0688471,27.7486143 29.7934586,27.4732829 L22.6805038,20.3603281 C22.5457562,20.2255806 22.3699836,20.1552601 22.1824814,20.1552601 L21.4091276,20.1552601 C23.2547401,18.0166932 24.3738029,15.2336268 24.3738029,12.1869014 C24.3738029,5.45478733 18.9190156,0 12.1869014,0 C5.45478733,0 0,5.45478733 0,12.1869014 C0,18.9190156 5.45478733,24.3738029 12.1869014,24.3738029 C15.2336268,24.3738029 18.0166932,23.2547401 20.1552601,21.4091276 L20.1552601,22.1824814 C20.1552601,22.3699836 20.2314168,22.5457562 20.3603281,22.6805038 L27.4732829,29.7934586 C27.7486143,30.0688471 28.1939392,30.0688471 28.4693278,29.7934586 Z M12.1869014,21.561441 C7.00744545,21.561441 2.81236187,17.3663575 2.81236187,12.1869014 C2.81236187,7.00744545 7.00744545,2.81236187 12.1869014,2.81236187 C17.3663575,2.81236187 21.561441,7.00744545 21.561441,12.1869014 C21.561441,17.3663575 17.3663575,21.561441 12.1869014,21.561441 Z" id="s" fill="#C72035" fill-rule="nonzero"></path>
            </g>
            <g id="icon_close_red" transform="translate(247.000000, 194.000000)">
                <mask id="mask-6" fill="white">
                    <use xlink:href="#path-5"></use>
                </mask>
                <g id="viewbox"></g>
                <g id="icon_x" mask="url(#mask-6)" fill="#FFFFFF" fill-rule="nonzero">
                    <g transform="translate(15.500000, 16.000000) rotate(-315.000000) translate(-15.500000, -16.000000) translate(1.000000, 1.000000)" id="Path">
                        <path d="M28.0285714,16.7262411 C28.4545898,16.7262411 28.8,16.4518728 28.8,16.1134752 L28.8,14.4794326 C28.8,14.141035 28.4545898,13.8666667 28.0285714,13.8666667 L0.771428571,13.8666667 C0.345410156,13.8666667 0,14.141035 0,14.4794326 L0,16.1134752 C0,16.4518728 0.345410156,16.7262411 0.771428571,16.7262411 L28.0285714,16.7262411 Z"></path>
                        <path d="M28.0285714,16.7262411 C28.4545898,16.7262411 28.8,16.4518728 28.8,16.1134752 L28.8,14.4794326 C28.8,14.141035 28.4545898,13.8666667 28.0285714,13.8666667 L0.771428571,13.8666667 C0.345410156,13.8666667 0,14.141035 0,14.4794326 L0,16.1134752 C0,16.4518728 0.345410156,16.7262411 0.771428571,16.7262411 L28.0285714,16.7262411 Z" transform="translate(14.400000, 15.296454) rotate(-270.000000) translate(-14.400000, -15.296454) "></path>
                    </g>
                </g>
            </g>
            <g id="icon_close_red" transform="translate(329.000000, 194.000000)">
                <mask id="mask-8" fill="white">
                    <use xlink:href="#path-7"></use>
                </mask>
                <g id="viewbox"></g>
                <g id="icon_x" mask="url(#mask-8)" fill="#C72035" fill-rule="nonzero">
                    <g transform="translate(15.500000, 16.000000) rotate(-315.000000) translate(-15.500000, -16.000000) translate(1.000000, 1.000000)" id="Path">
                        <path d="M28.0285714,16.7262411 C28.4545898,16.7262411 28.8,16.4518728 28.8,16.1134752 L28.8,14.4794326 C28.8,14.141035 28.4545898,13.8666667 28.0285714,13.8666667 L0.771428571,13.8666667 C0.345410156,13.8666667 0,14.141035 0,14.4794326 L0,16.1134752 C0,16.4518728 0.345410156,16.7262411 0.771428571,16.7262411 L28.0285714,16.7262411 Z"></path>
                        <path d="M28.0285714,16.7262411 C28.4545898,16.7262411 28.8,16.4518728 28.8,16.1134752 L28.8,14.4794326 C28.8,14.141035 28.4545898,13.8666667 28.0285714,13.8666667 L0.771428571,13.8666667 C0.345410156,13.8666667 0,14.141035 0,14.4794326 L0,16.1134752 C0,16.4518728 0.345410156,16.7262411 0.771428571,16.7262411 L28.0285714,16.7262411 Z" transform="translate(14.400000, 15.296454) rotate(-270.000000) translate(-14.400000, -15.296454) "></path>
                    </g>
                </g>
            </g>
            <g id="button_menu" transform="translate(1.000000, 93.000000)">
                <path d="M13.625,3.4893617 C13.8320923,3.4893617 14,3.34646152 14,3.17021277 L14,2.31914894 C14,2.14290018 13.8320923,2 13.625,2 L0.375,2 C0.167907715,2 0,2.14290018 0,2.31914894 L0,3.17021277 C0,3.34646152 0.167907715,3.4893617 0.375,3.4893617 L13.625,3.4893617 Z M8.07407407,7.74468085 C8.19679543,7.74468085 8.2962963,7.60178067 8.2962963,7.42553191 L8.2962963,6.57446809 C8.2962963,6.39821933 8.19679543,6.25531915 8.07407407,6.25531915 L0.222222222,6.25531915 C0.0995008681,6.25531915 0,6.39821933 0,6.57446809 L0,7.42553191 C0,7.60178067 0.0995008681,7.74468085 0.222222222,7.74468085 L8.07407407,7.74468085 Z M11.6064815,12 C11.7828934,12 11.9259259,11.8570998 11.9259259,11.6808511 L11.9259259,10.8297872 C11.9259259,10.6535385 11.7828934,10.5106383 11.6064815,10.5106383 L0.319444444,10.5106383 C0.143032498,10.5106383 0,10.6535385 0,10.8297872 L0,11.6808511 C0,11.8570998 0.143032498,12 0.319444444,12 L11.6064815,12 Z" id="b" fill="#000000" fill-rule="nonzero"></path>
                <text id="MENU" font-family="ProximaNova-Semibold, Proxima Nova" font-size="14" font-weight="500" line-spacing="16" letter-spacing="1" fill="#030303">
                    <tspan x="21" y="12">MENU</tspan>
                </text>
            </g>
            <path d="M138.336709,105.910499 L138.910499,105.336709 C139.029834,105.217374 139.029834,105.0244 138.910499,104.905089 L135.828218,101.822809 C135.769828,101.764418 135.69366,101.733946 135.612409,101.733946 L135.277289,101.733946 C136.077054,100.807234 136.561981,99.6012383 136.561981,98.2809906 C136.561981,95.3637412 134.19824,93 131.280991,93 C128.363741,93 126,95.3637412 126,98.2809906 C126,101.19824 128.363741,103.561981 131.280991,103.561981 C132.601238,103.561981 133.807234,103.077054 134.733946,102.277289 L134.733946,102.612409 C134.733946,102.69366 134.766947,102.769828 134.822809,102.828218 L137.905089,105.910499 C138.0244,106.029834 138.217374,106.029834 138.336709,105.910499 Z M131.280991,102.343291 C129.03656,102.343291 127.21869,100.525422 127.21869,98.2809906 C127.21869,96.0365597 129.03656,94.2186901 131.280991,94.2186901 C133.525422,94.2186901 135.343291,96.0365597 135.343291,98.2809906 C135.343291,100.525422 133.525422,102.343291 131.280991,102.343291 Z" id="s" fill="#000000" fill-rule="nonzero"></path>
            <g id="button_search" transform="translate(167.000000, 197.000000)">
                <rect id="viewbox" x="0" y="0" width="30" height="30"></rect>
                <path d="M28.4693278,29.7934586 L29.7934586,28.4693278 C30.0688471,28.1939392 30.0688471,27.7486143 29.7934586,27.4732829 L22.6805038,20.3603281 C22.5457562,20.2255806 22.3699836,20.1552601 22.1824814,20.1552601 L21.4091276,20.1552601 C23.2547401,18.0166932 24.3738029,15.2336268 24.3738029,12.1869014 C24.3738029,5.45478733 18.9190156,0 12.1869014,0 C5.45478733,0 0,5.45478733 0,12.1869014 C0,18.9190156 5.45478733,24.3738029 12.1869014,24.3738029 C15.2336268,24.3738029 18.0166932,23.2547401 20.1552601,21.4091276 L20.1552601,22.1824814 C20.1552601,22.3699836 20.2314168,22.5457562 20.3603281,22.6805038 L27.4732829,29.7934586 C27.7486143,30.0688471 28.1939392,30.0688471 28.4693278,29.7934586 Z M12.1869014,21.561441 C7.00744545,21.561441 2.81236187,17.3663575 2.81236187,12.1869014 C2.81236187,7.00744545 7.00744545,2.81236187 12.1869014,2.81236187 C17.3663575,2.81236187 21.561441,7.00744545 21.561441,12.1869014 C21.561441,17.3663575 17.3663575,21.561441 12.1869014,21.561441 Z" id="s" fill="#FFFFFF" fill-rule="nonzero"></path>
            </g>
            <g id="icon_close_red" transform="translate(411.000000, 194.000000)">
                <mask id="mask-10" fill="white">
                    <use xlink:href="#path-9"></use>
                </mask>
                <g id="viewbox"></g>
                <g id="icon_x" mask="url(#mask-10)" fill="#000000" fill-rule="nonzero">
                    <g transform="translate(15.219665, 16.138914) rotate(-315.000000) translate(-15.219665, -16.138914) translate(0.819665, 1.738914)" id="Path">
                        <path d="M28.0285714,15.8297872 C28.4545898,15.8297872 28.8,15.5554189 28.8,15.2170213 L28.8,13.5829787 C28.8,13.2445811 28.4545898,12.9702128 28.0285714,12.9702128 L0.771428571,12.9702128 C0.345410156,12.9702128 -4.44305943e-13,13.2445811 -4.44305943e-13,13.5829787 L-4.44305943e-13,15.2170213 C-4.44305943e-13,15.5554189 0.345410156,15.8297872 0.771428571,15.8297872 L28.0285714,15.8297872 Z"></path>
                        <path d="M28.0285714,15.8297872 C28.4545898,15.8297872 28.8,15.5554189 28.8,15.2170213 L28.8,13.5829787 C28.8,13.2445811 28.4545898,12.9702128 28.0285714,12.9702128 L0.771428571,12.9702128 C0.345410156,12.9702128 -6.85472144e-13,13.2445811 -6.85472144e-13,13.5829787 L-6.85472144e-13,15.2170213 C-6.85472144e-13,15.5554189 0.345410156,15.8297872 0.771428571,15.8297872 L28.0285714,15.8297872 Z" transform="translate(14.400000, 14.400000) rotate(-270.000000) translate(-14.400000, -14.400000) "></path>
                    </g>
                </g>
            </g>
        </g>
    </g>
</svg>