<?xml version="1.0" encoding="UTF-8"?>
<svg width="218px" height="67px" viewBox="0 0 218 67" version="1.1" xmlns="http://www.w3.org/2000/svg" xmlns:xlink="http://www.w3.org/1999/xlink">
    <title>Group 9</title>
    <g id="Style-Guide" stroke="none" stroke-width="1" fill="none" fill-rule="evenodd">
        <g id="Group-9">
            <g id="buttons_social">
                <g id="logo_linkedin" transform="translate(48.000000, 0.000000)">
                    <rect id="viewbox" x="0" y="0" width="26" height="26"></rect>
                    <path d="M3.859375,1.625 C5.54191457,1.625 6.90625,2.93908562 6.90625,4.55965561 C6.90625,6.1802256 5.54191457,7.49431123 3.859375,7.49431123 C2.17683543,7.49431123 0.8125,6.1802256 0.8125,4.55965561 C0.8125,2.93908562 2.17683543,1.625 3.859375,1.625 L3.859375,1.625 Z M1.22785496,9.71564482 L6.48526311,9.71564482 L6.48526311,26 L1.22785496,26 L1.22785496,9.71564482 Z" id="Fill-13" fill="#FFFFFF"></path>
                    <path d="M8.9375,9.15220258 L13.9247301,9.15220258 L13.9247301,11.456007 L14.0195921,11.456007 C15.0379636,9.70640644 16.930321,8.66183739 18.9440459,8.73830349 C24.2214421,8.73830349 25.1875,12.2255787 25.1875,16.758826 L25.1875,26 L19.9840403,26 L19.9840403,17.8097087 C19.9840403,15.8559647 19.9519547,13.3403001 17.2818684,13.3403001 C14.6110846,13.3403001 14.1570025,15.4631114 14.1570025,17.6665979 L14.1570025,26 L8.95842544,26 L8.9375,9.15220258 Z" id="Fill-15" fill="#FFFFFF"></path>
                </g>
                <g id="logo_twitter" transform="translate(96.000000, 0.000000)">
                    <rect id="viewbox" x="0" y="0" width="26" height="26"></rect>
                    <path d="M25.8930813,5.82920998 C25.0677648,6.20488211 24.1541503,6.43258049 23.2633611,6.58297013 C23.6862307,6.51109717 24.3073204,5.74163368 24.5565972,5.42998285 C24.9362187,4.95525891 25.2515689,4.41470175 25.4287657,3.83005446 C25.4521917,3.78475637 25.4690104,3.7273788 25.4233597,3.69295225 C25.3662963,3.67000122 25.3296556,3.68147674 25.2840049,3.70442777 C24.289901,4.24015313 23.2609585,4.62850872 22.1659425,4.90392108 C22.0758425,4.92687211 22.0079671,4.90392108 21.9515044,4.84654351 C21.860203,4.74386784 21.775509,4.64662795 21.6788016,4.56629935 C21.2186906,4.17250799 20.725543,3.86387703 20.1687247,3.63617865 C19.437713,3.33660731 18.6394265,3.20977267 17.8525528,3.2611105 C17.0867023,3.31124038 16.3346672,3.52806722 15.6553128,3.88501614 C14.9741565,4.24256903 14.3662815,4.74084797 13.8827445,5.3411986 C13.3823889,5.96208437 13.0129787,6.69530938 12.8243693,7.47322851 C12.6417665,8.22336481 12.6567832,8.96564945 12.7679066,9.72363742 C12.7847252,9.84986808 12.7733126,9.86617539 12.6603872,9.84986808 C8.37883276,9.20905116 4.82949143,7.66831227 1.94809181,4.36698777 C1.82315307,4.22384582 1.75587837,4.22384582 1.65316431,4.37785931 C0.391763598,6.27856699 1.00384328,9.33105401 2.57879216,10.8313266 C2.78902561,11.0312422 3.00466507,11.2311577 3.2371232,11.413558 C3.15242915,11.4310733 2.10426523,11.3175261 1.17022804,10.8313266 C1.0452893,10.751602 0.982219263,10.797504 0.971407257,10.940042 C0.959393917,11.1453933 0.977413927,11.3344374 1.00564528,11.5573039 C1.24711341,13.4833785 2.57338616,15.2644993 4.39100451,15.9596739 C4.60664397,16.051478 4.84510877,16.1312027 5.0775669,16.171065 C4.66370733,16.2628691 4.23723376,16.3280983 3.05031576,16.2344823 C2.90255168,16.2054915 2.84608898,16.2803844 2.90255168,16.4229223 C3.79454218,18.867207 5.71967993,19.5949963 7.16188141,20.0093228 C7.35529618,20.0431454 7.54811029,20.0431454 7.74212573,20.0890474 C7.73011239,20.1065627 7.71869972,20.1065627 7.70728705,20.123474 C7.22915611,20.856699 5.57071451,21.4020879 4.79825674,21.6732725 C3.39389729,22.1673236 1.86459909,22.3889822 0.380350925,22.2422164 C0.142486791,22.2065819 0.0932320968,22.2096018 0.0283600603,22.2422164 C-0.0365119761,22.2826827 0.0199507223,22.3400603 0.0968360989,22.4016657 C0.397770268,22.6015812 0.70411044,22.7791497 1.01705795,22.9500745 C1.95950448,23.4525813 2.9421957,23.8530164 3.96993694,24.1380923 C9.2774306,25.61179 15.2558693,24.5288638 19.2406942,20.547464 C22.3701693,17.4212921 23.4675879,13.1095183 23.4675879,8.79291275 C23.4675879,8.62379989 23.665808,8.53018385 23.7835388,8.4413996 C24.5980432,7.82594961 25.2545722,7.08970472 25.8618466,6.26769545 C25.998198,6.08348324 26,5.91920218 26,5.85155704 L26,5.82920998 C26,5.75975292 25.998198,5.78089202 25.8930813,5.82920998" id="Fill-11" fill="#FFFFFF"></path>
                </g>
                <g id="logo_vimeo" transform="translate(144.000000, 0.000000)">
                    <rect id="viewbox" x="0" y="0" width="26" height="26"></rect>
                    <path d="M24.3631769,9.76214835 C24.2544599,12.139179 22.5972609,15.3947413 19.3921674,19.5264847 C16.0777692,23.8421616 13.274047,26 10.9804129,26 C9.56004056,26 8.35710209,24.6860221 7.3751235,22.0574788 C6.71929578,19.6481276 6.06346807,17.2387764 5.40764035,14.8294252 C4.67835523,12.2020572 3.89559312,10.886904 3.05935402,10.886904 C2.87717965,10.886904 2.23898171,11.2712249 1.14652318,12.0369285 L0,10.5566466 C1.20293847,9.49770737 2.38942248,8.43876814 3.5571014,7.37865362 C5.16141113,5.98945699 6.36611258,5.25901223 7.16826744,5.18496876 C9.06581914,5.00221066 10.2334981,6.30149735 10.6713042,9.08282885 C11.1449575,12.0833525 11.4728714,13.9497182 11.6568087,14.680163 C12.2039195,17.1694341 12.8050949,18.4128944 13.4626856,18.4128944 C13.9727738,18.4128944 14.7390815,17.6054679 15.7610209,15.990615 C16.781785,14.375762 17.3288957,13.1469929 17.4023532,12.3031324 C17.5480926,10.9092346 17.0009819,10.2105227 15.7610209,10.2105227 C15.1774753,10.2105227 14.5757122,10.3450938 13.956907,10.6112977 C15.1551442,6.67994178 17.4434893,4.77067788 20.8219423,4.87939251 C23.326546,4.95284834 24.5077411,6.5806295 24.3631769,9.76214835" id="Fill-17" fill="#FFFFFF"></path>
                </g>
                <g id="logo_instagram" transform="translate(192.000000, 0.000000)">
                    <rect id="ViewBox" x="0" y="0" width="26" height="26"></rect>
                    <path d="M8.31039773,3.31825 C9.52338636,3.26240909 9.91013636,3.25 13,3.25 C16.0898636,3.25 16.4766136,3.26344318 17.6885682,3.31825 C18.9005227,3.37305682 19.7277955,3.56643182 20.4516591,3.84667045 C21.2096477,4.13311364 21.8973182,4.580875 22.4660682,5.15996591 C23.0451591,5.72768182 23.4918864,6.41431818 23.7772955,7.17334091 C24.0585682,7.89720455 24.2509091,8.72447727 24.30675,9.93436364 C24.3625909,11.1494205 24.375,11.5361705 24.375,14.625 C24.375,17.7148636 24.3615568,18.1016136 24.30675,19.3146023 C24.2519432,20.5244886 24.0585682,21.3517614 23.7772955,22.075625 C23.4918778,22.834745 23.044415,23.522525 22.4660682,24.0910682 C21.8973182,24.6701591 21.2096477,25.1168864 20.4516591,25.4022955 C19.7277955,25.6835682 18.9005227,25.8759091 17.6906364,25.93175 C16.4766136,25.9875909 16.0898636,26 13,26 C9.91013636,26 9.52338636,25.9865568 8.31039773,25.93175 C7.10051136,25.8769432 6.27323864,25.6835682 5.549375,25.4022955 C4.79027009,25.116848 4.10249613,24.6693891 3.53393182,24.0910682 C2.95523381,23.523011 2.50740497,22.8355637 2.22167045,22.0766591 C1.94143182,21.3527955 1.74909091,20.5255227 1.69325,19.3156364 C1.63740909,18.1005795 1.625,17.7138295 1.625,14.625 C1.625,11.5351364 1.63844318,11.1483864 1.69325,9.93643182 C1.74805682,8.72447727 1.94143182,7.89720455 2.22167045,7.17334091 C2.50782697,6.41440237 2.9559979,5.72697169 3.53496591,5.15893182 C4.10272365,4.5803592 4.78980623,4.13253804 5.54834091,3.84667045 C6.27220455,3.56643182 7.09947727,3.37409091 8.30936364,3.31825 L8.31039773,3.31825 Z M17.5965341,5.36575 C16.3969886,5.31094318 16.037125,5.29956818 13,5.29956818 C9.962875,5.29956818 9.60301136,5.31094318 8.40346591,5.36575 C7.29388636,5.41642045 6.69204545,5.60152273 6.29081818,5.75767045 C5.76032955,5.96448864 5.38081818,6.20956818 4.98269318,6.60769318 C4.60529637,6.9748487 4.31485693,7.42181452 4.13267045,7.91581818 C3.97652273,8.31704545 3.79142045,8.91888636 3.74075,10.0284659 C3.68594318,11.2280114 3.67456818,11.587875 3.67456818,14.625 C3.67456818,17.662125 3.68594318,18.0219886 3.74075,19.2215341 C3.79142045,20.3311136 3.97652273,20.9329545 4.13267045,21.3341818 C4.31467045,21.8274432 4.60525,22.2752045 4.98269318,22.6423068 C5.34979545,23.01975 5.79755682,23.3103295 6.29081818,23.4923295 C6.69204545,23.6484773 7.29388636,23.8335795 8.40346591,23.88425 C9.60301136,23.9390568 9.96184091,23.9504318 13,23.9504318 C16.0381591,23.9504318 16.3969886,23.9390568 17.5965341,23.88425 C18.7061136,23.8335795 19.3079545,23.6484773 19.7091818,23.4923295 C20.2396705,23.2855114 20.6191818,23.0404318 21.0173068,22.6423068 C21.39475,22.2752045 21.6853295,21.8274432 21.8673295,21.3341818 C22.0234773,20.9329545 22.2085795,20.3311136 22.25925,19.2215341 C22.3140568,18.0219886 22.3254318,17.662125 22.3254318,14.625 C22.3254318,11.587875 22.3140568,11.2280114 22.25925,10.0284659 C22.2085795,8.91888636 22.0234773,8.31704545 21.8673295,7.91581818 C21.6605114,7.38532955 21.4154318,7.00581818 21.0173068,6.60769318 C20.650129,6.23032356 20.2031697,5.93988838 19.7091818,5.75767045 C19.3079545,5.60152273 18.7061136,5.41642045 17.5965341,5.36575 Z M11.5471023,18.1316023 C13.2204285,18.8281606 15.1527487,18.2438838 16.1597778,16.7368647 C17.1668069,15.2298456 16.9672726,13.2210084 15.6834659,11.9415341 C14.5979566,10.8567035 12.9659328,10.5324089 11.5481383,11.1198156 C10.1303438,11.7072223 9.20586773,13.0907008 9.20564093,14.6253629 C9.20541421,16.160025 10.1294814,17.5437766 11.5471023,18.1316023 L11.5471023,18.1316023 Z M8.86570455,10.4907045 C10.342746,9.013663 12.495581,8.4368126 14.5132572,8.97744731 C16.5309334,9.51808202 18.106918,11.0940666 18.6475527,13.1117428 C19.1881874,15.129419 18.611337,17.282254 17.1342955,18.7592955 C14.8509871,21.0426037 11.1490129,21.0426037 8.86570461,18.7592954 C6.5823963,16.4759871 6.58239627,12.7740129 8.86570455,10.4907045 L8.86570455,10.4907045 Z M20.1435,9.64895455 C20.5098,9.30341395 20.6592646,8.78604376 20.5336664,8.29839729 C20.4080682,7.81075082 20.0272719,7.42995456 19.5396254,7.30435637 C19.051979,7.17875817 18.5346088,7.32822273 18.1890682,7.69452273 C17.6758755,8.23854705 17.688318,9.09203821 18.2171513,9.62087147 C18.7459845,10.1497047 19.5994757,10.1621473 20.1435,9.64895455 L20.1435,9.64895455 Z" id="Shape" fill="#FFFFFF"></path>
                </g>
                <g id="logo_facebook">
                    <polygon id="viewbox" points="0 0 26 0 26 26 0 26"></polygon>
                    <path d="M18.778784,14.9215494 L19.469874,10.3630776 L15.1483913,10.3630776 L15.1483913,7.40497062 C15.1483913,6.15806468 15.7520101,4.94224691 17.6877298,4.94224691 L19.6521615,4.94224691 L19.6521615,1.06163233 C19.6521615,1.06163233 17.8693496,0.753453947 16.1646609,0.753453947 C12.6057143,0.753453947 10.2793784,2.93638413 10.2793784,6.88863667 L10.2793784,10.3630776 L6.32313847,10.3630776 L6.32313847,14.9215494 L10.2793784,14.9215494 L10.2793784,25.9409539 L15.1483913,25.9409539 L15.1483913,14.9215494 L18.778784,14.9215494 Z" id="Fill-1" fill="#FFFFFF"></path>
                </g>
            </g>
            <g id="buttons_social" transform="translate(0.000000, 41.000000)">
                <g id="logo_linkedin" transform="translate(48.000000, 0.000000)">
                    <rect id="viewbox" x="0" y="0" width="26" height="26"></rect>
                    <path d="M3.859375,1.625 C5.54191457,1.625 6.90625,2.93908562 6.90625,4.55965561 C6.90625,6.1802256 5.54191457,7.49431123 3.859375,7.49431123 C2.17683543,7.49431123 0.8125,6.1802256 0.8125,4.55965561 C0.8125,2.93908562 2.17683543,1.625 3.859375,1.625 L3.859375,1.625 Z M1.22785496,9.71564482 L6.48526311,9.71564482 L6.48526311,26 L1.22785496,26 L1.22785496,9.71564482 Z" id="Fill-13" fill="#FFD91E"></path>
                    <path d="M8.9375,9.15220258 L13.9247301,9.15220258 L13.9247301,11.456007 L14.0195921,11.456007 C15.0379636,9.70640644 16.930321,8.66183739 18.9440459,8.73830349 C24.2214421,8.73830349 25.1875,12.2255787 25.1875,16.758826 L25.1875,26 L19.9840403,26 L19.9840403,17.8097087 C19.9840403,15.8559647 19.9519547,13.3403001 17.2818684,13.3403001 C14.6110846,13.3403001 14.1570025,15.4631114 14.1570025,17.6665979 L14.1570025,26 L8.95842544,26 L8.9375,9.15220258 Z" id="Fill-15" fill="#FFD91E"></path>
                </g>
                <g id="logo_twitter" transform="translate(96.000000, 0.000000)">
                    <rect id="viewbox" x="0" y="0" width="26" height="26"></rect>
                    <path d="M25.8930813,5.82920998 C25.0677648,6.20488211 24.1541503,6.43258049 23.2633611,6.58297013 C23.6862307,6.51109717 24.3073204,5.74163368 24.5565972,5.42998285 C24.9362187,4.95525891 25.2515689,4.41470175 25.4287657,3.83005446 C25.4521917,3.78475637 25.4690104,3.7273788 25.4233597,3.69295225 C25.3662963,3.67000122 25.3296556,3.68147674 25.2840049,3.70442777 C24.289901,4.24015313 23.2609585,4.62850872 22.1659425,4.90392108 C22.0758425,4.92687211 22.0079671,4.90392108 21.9515044,4.84654351 C21.860203,4.74386784 21.775509,4.64662795 21.6788016,4.56629935 C21.2186906,4.17250799 20.725543,3.86387703 20.1687247,3.63617865 C19.437713,3.33660731 18.6394265,3.20977267 17.8525528,3.2611105 C17.0867023,3.31124038 16.3346672,3.52806722 15.6553128,3.88501614 C14.9741565,4.24256903 14.3662815,4.74084797 13.8827445,5.3411986 C13.3823889,5.96208437 13.0129787,6.69530938 12.8243693,7.47322851 C12.6417665,8.22336481 12.6567832,8.96564945 12.7679066,9.72363742 C12.7847252,9.84986808 12.7733126,9.86617539 12.6603872,9.84986808 C8.37883276,9.20905116 4.82949143,7.66831227 1.94809181,4.36698777 C1.82315307,4.22384582 1.75587837,4.22384582 1.65316431,4.37785931 C0.391763598,6.27856699 1.00384328,9.33105401 2.57879216,10.8313266 C2.78902561,11.0312422 3.00466507,11.2311577 3.2371232,11.413558 C3.15242915,11.4310733 2.10426523,11.3175261 1.17022804,10.8313266 C1.0452893,10.751602 0.982219263,10.797504 0.971407257,10.940042 C0.959393917,11.1453933 0.977413927,11.3344374 1.00564528,11.5573039 C1.24711341,13.4833785 2.57338616,15.2644993 4.39100451,15.9596739 C4.60664397,16.051478 4.84510877,16.1312027 5.0775669,16.171065 C4.66370733,16.2628691 4.23723376,16.3280983 3.05031576,16.2344823 C2.90255168,16.2054915 2.84608898,16.2803844 2.90255168,16.4229223 C3.79454218,18.867207 5.71967993,19.5949963 7.16188141,20.0093228 C7.35529618,20.0431454 7.54811029,20.0431454 7.74212573,20.0890474 C7.73011239,20.1065627 7.71869972,20.1065627 7.70728705,20.123474 C7.22915611,20.856699 5.57071451,21.4020879 4.79825674,21.6732725 C3.39389729,22.1673236 1.86459909,22.3889822 0.380350925,22.2422164 C0.142486791,22.2065819 0.0932320968,22.2096018 0.0283600603,22.2422164 C-0.0365119761,22.2826827 0.0199507223,22.3400603 0.0968360989,22.4016657 C0.397770268,22.6015812 0.70411044,22.7791497 1.01705795,22.9500745 C1.95950448,23.4525813 2.9421957,23.8530164 3.96993694,24.1380923 C9.2774306,25.61179 15.2558693,24.5288638 19.2406942,20.547464 C22.3701693,17.4212921 23.4675879,13.1095183 23.4675879,8.79291275 C23.4675879,8.62379989 23.665808,8.53018385 23.7835388,8.4413996 C24.5980432,7.82594961 25.2545722,7.08970472 25.8618466,6.26769545 C25.998198,6.08348324 26,5.91920218 26,5.85155704 L26,5.82920998 C26,5.75975292 25.998198,5.78089202 25.8930813,5.82920998" id="Fill-11" fill="#FFD91E"></path>
                </g>
                <g id="logo_vimeo" transform="translate(144.000000, 0.000000)">
                    <rect id="viewbox" x="0" y="0" width="26" height="26"></rect>
                    <path d="M24.3631769,9.76214835 C24.2544599,12.139179 22.5972609,15.3947413 19.3921674,19.5264847 C16.0777692,23.8421616 13.274047,26 10.9804129,26 C9.56004056,26 8.35710209,24.6860221 7.3751235,22.0574788 C6.71929578,19.6481276 6.06346807,17.2387764 5.40764035,14.8294252 C4.67835523,12.2020572 3.89559312,10.886904 3.05935402,10.886904 C2.87717965,10.886904 2.23898171,11.2712249 1.14652318,12.0369285 L0,10.5566466 C1.20293847,9.49770737 2.38942248,8.43876814 3.5571014,7.37865362 C5.16141113,5.98945699 6.36611258,5.25901223 7.16826744,5.18496876 C9.06581914,5.00221066 10.2334981,6.30149735 10.6713042,9.08282885 C11.1449575,12.0833525 11.4728714,13.9497182 11.6568087,14.680163 C12.2039195,17.1694341 12.8050949,18.4128944 13.4626856,18.4128944 C13.9727738,18.4128944 14.7390815,17.6054679 15.7610209,15.990615 C16.781785,14.375762 17.3288957,13.1469929 17.4023532,12.3031324 C17.5480926,10.9092346 17.0009819,10.2105227 15.7610209,10.2105227 C15.1774753,10.2105227 14.5757122,10.3450938 13.956907,10.6112977 C15.1551442,6.67994178 17.4434893,4.77067788 20.8219423,4.87939251 C23.326546,4.95284834 24.5077411,6.5806295 24.3631769,9.76214835" id="Fill-17" fill="#FFD91E"></path>
                </g>
                <g id="logo_instagram" transform="translate(192.000000, 0.000000)">
                    <rect id="ViewBox" x="0" y="0" width="26" height="26"></rect>
                    <path d="M8.31039773,3.31825 C9.52338636,3.26240909 9.91013636,3.25 13,3.25 C16.0898636,3.25 16.4766136,3.26344318 17.6885682,3.31825 C18.9005227,3.37305682 19.7277955,3.56643182 20.4516591,3.84667045 C21.2096477,4.13311364 21.8973182,4.580875 22.4660682,5.15996591 C23.0451591,5.72768182 23.4918864,6.41431818 23.7772955,7.17334091 C24.0585682,7.89720455 24.2509091,8.72447727 24.30675,9.93436364 C24.3625909,11.1494205 24.375,11.5361705 24.375,14.625 C24.375,17.7148636 24.3615568,18.1016136 24.30675,19.3146023 C24.2519432,20.5244886 24.0585682,21.3517614 23.7772955,22.075625 C23.4918778,22.834745 23.044415,23.522525 22.4660682,24.0910682 C21.8973182,24.6701591 21.2096477,25.1168864 20.4516591,25.4022955 C19.7277955,25.6835682 18.9005227,25.8759091 17.6906364,25.93175 C16.4766136,25.9875909 16.0898636,26 13,26 C9.91013636,26 9.52338636,25.9865568 8.31039773,25.93175 C7.10051136,25.8769432 6.27323864,25.6835682 5.549375,25.4022955 C4.79027009,25.116848 4.10249613,24.6693891 3.53393182,24.0910682 C2.95523381,23.523011 2.50740497,22.8355637 2.22167045,22.0766591 C1.94143182,21.3527955 1.74909091,20.5255227 1.69325,19.3156364 C1.63740909,18.1005795 1.625,17.7138295 1.625,14.625 C1.625,11.5351364 1.63844318,11.1483864 1.69325,9.93643182 C1.74805682,8.72447727 1.94143182,7.89720455 2.22167045,7.17334091 C2.50782697,6.41440237 2.9559979,5.72697169 3.53496591,5.15893182 C4.10272365,4.5803592 4.78980623,4.13253804 5.54834091,3.84667045 C6.27220455,3.56643182 7.09947727,3.37409091 8.30936364,3.31825 L8.31039773,3.31825 Z M17.5965341,5.36575 C16.3969886,5.31094318 16.037125,5.29956818 13,5.29956818 C9.962875,5.29956818 9.60301136,5.31094318 8.40346591,5.36575 C7.29388636,5.41642045 6.69204545,5.60152273 6.29081818,5.75767045 C5.76032955,5.96448864 5.38081818,6.20956818 4.98269318,6.60769318 C4.60529637,6.9748487 4.31485693,7.42181452 4.13267045,7.91581818 C3.97652273,8.31704545 3.79142045,8.91888636 3.74075,10.0284659 C3.68594318,11.2280114 3.67456818,11.587875 3.67456818,14.625 C3.67456818,17.662125 3.68594318,18.0219886 3.74075,19.2215341 C3.79142045,20.3311136 3.97652273,20.9329545 4.13267045,21.3341818 C4.31467045,21.8274432 4.60525,22.2752045 4.98269318,22.6423068 C5.34979545,23.01975 5.79755682,23.3103295 6.29081818,23.4923295 C6.69204545,23.6484773 7.29388636,23.8335795 8.40346591,23.88425 C9.60301136,23.9390568 9.96184091,23.9504318 13,23.9504318 C16.0381591,23.9504318 16.3969886,23.9390568 17.5965341,23.88425 C18.7061136,23.8335795 19.3079545,23.6484773 19.7091818,23.4923295 C20.2396705,23.2855114 20.6191818,23.0404318 21.0173068,22.6423068 C21.39475,22.2752045 21.6853295,21.8274432 21.8673295,21.3341818 C22.0234773,20.9329545 22.2085795,20.3311136 22.25925,19.2215341 C22.3140568,18.0219886 22.3254318,17.662125 22.3254318,14.625 C22.3254318,11.587875 22.3140568,11.2280114 22.25925,10.0284659 C22.2085795,8.91888636 22.0234773,8.31704545 21.8673295,7.91581818 C21.6605114,7.38532955 21.4154318,7.00581818 21.0173068,6.60769318 C20.650129,6.23032356 20.2031697,5.93988838 19.7091818,5.75767045 C19.3079545,5.60152273 18.7061136,5.41642045 17.5965341,5.36575 Z M11.5471023,18.1316023 C13.2204285,18.8281606 15.1527487,18.2438838 16.1597778,16.7368647 C17.1668069,15.2298456 16.9672726,13.2210084 15.6834659,11.9415341 C14.5979566,10.8567035 12.9659328,10.5324089 11.5481383,11.1198156 C10.1303438,11.7072223 9.20586773,13.0907008 9.20564093,14.6253629 C9.20541421,16.160025 10.1294814,17.5437766 11.5471023,18.1316023 L11.5471023,18.1316023 Z M8.86570455,10.4907045 C10.342746,9.013663 12.495581,8.4368126 14.5132572,8.97744731 C16.5309334,9.51808202 18.106918,11.0940666 18.6475527,13.1117428 C19.1881874,15.129419 18.611337,17.282254 17.1342955,18.7592955 C14.8509871,21.0426037 11.1490129,21.0426037 8.86570461,18.7592954 C6.5823963,16.4759871 6.58239627,12.7740129 8.86570455,10.4907045 L8.86570455,10.4907045 Z M20.1435,9.64895455 C20.5098,9.30341395 20.6592646,8.78604376 20.5336664,8.29839729 C20.4080682,7.81075082 20.0272719,7.42995456 19.5396254,7.30435637 C19.051979,7.17875817 18.5346088,7.32822273 18.1890682,7.69452273 C17.6758755,8.23854705 17.688318,9.09203821 18.2171513,9.62087147 C18.7459845,10.1497047 19.5994757,10.1621473 20.1435,9.64895455 L20.1435,9.64895455 Z" id="Shape" fill="#FFD91E"></path>
                </g>
                <g id="logo_facebook">
                    <polygon id="viewbox" points="0 0 26 0 26 26 0 26"></polygon>
                    <path d="M18.778784,14.9215494 L19.469874,10.3630776 L15.1483913,10.3630776 L15.1483913,7.40497062 C15.1483913,6.15806468 15.7520101,4.94224691 17.6877298,4.94224691 L19.6521615,4.94224691 L19.6521615,1.06163233 C19.6521615,1.06163233 17.8693496,0.753453947 16.1646609,0.753453947 C12.6057143,0.753453947 10.2793784,2.93638413 10.2793784,6.88863667 L10.2793784,10.3630776 L6.32313847,10.3630776 L6.32313847,14.9215494 L10.2793784,14.9215494 L10.2793784,25.9409539 L15.1483913,25.9409539 L15.1483913,14.9215494 L18.778784,14.9215494 Z" id="Fill-1" fill="#FFD91E"></path>
                </g>
            </g>
        </g>
    </g>
</svg>